<?xml version="1.0" encoding="utf-8"?>
<!-- Generator: Adobe Illustrator 27.5.0, SVG Export Plug-In . SVG Version: 6.00 Build 0)  -->
<svg version="1.1" xmlns="http://www.w3.org/2000/svg" xmlns:xlink="http://www.w3.org/1999/xlink" x="0px" y="0px"
	 viewBox="0 0 500 500" style="enable-background:new 0 0 500 500;" xml:space="preserve">
<g id="Background_Complete">
	<g>
		<rect y="382.398" style="fill:#EBEBEB;" width="500" height="0.25"/>
		<rect x="102.016" y="398.494" style="fill:#EBEBEB;" width="33.122" height="0.25"/>
		<rect x="171.14" y="390.925" style="fill:#EBEBEB;" width="43.554" height="0.25"/>
		<rect x="52.459" y="389.208" style="fill:#EBEBEB;" width="48.556" height="0.25"/>
		<rect x="247.605" y="392.592" style="fill:#EBEBEB;" width="34.29" height="0.25"/>
		<rect x="442.463" y="392.592" style="fill:#EBEBEB;" width="7.439" height="0.25"/>
		<rect x="290.799" y="392.592" style="fill:#EBEBEB;" width="48.567" height="0.25"/>
		<rect x="326.618" y="396.814" style="fill:#EBEBEB;" width="93.676" height="0.25"/>
		<path style="fill:#EBEBEB;" d="M237.014,337.8H43.915c-3.147,0-5.708-2.561-5.708-5.708V60.66c0-3.147,2.561-5.708,5.708-5.708
			h193.099c3.146,0,5.707,2.561,5.707,5.708v271.432C242.721,335.239,240.16,337.8,237.014,337.8z M43.915,55.203
			c-3.01,0-5.458,2.448-5.458,5.458v271.432c0,3.01,2.448,5.458,5.458,5.458h193.099c3.009,0,5.457-2.448,5.457-5.458V60.66
			c0-3.009-2.448-5.458-5.457-5.458H43.915z"/>
		<path style="fill:#EBEBEB;" d="M453.31,337.8H260.212c-3.147,0-5.707-2.561-5.707-5.708V60.66c0-3.147,2.561-5.708,5.707-5.708
			H453.31c3.148,0,5.708,2.561,5.708,5.708v271.432C459.019,335.239,456.458,337.8,453.31,337.8z M260.212,55.203
			c-3.009,0-5.457,2.448-5.457,5.458v271.432c0,3.01,2.448,5.458,5.457,5.458H453.31c3.01,0,5.458-2.448,5.458-5.458V60.66
			c0-3.009-2.448-5.458-5.458-5.458H260.212z"/>
	</g>
	<g>
		<g>
			
				<rect x="201.662" y="275.652" transform="matrix(-1 -1.224647e-16 1.224647e-16 -1 412.1817 651.572)" style="fill:#F0F0F0;" width="8.858" height="100.267"/>
			
				<rect x="71.48" y="375.92" transform="matrix(-1 -1.224647e-16 1.224647e-16 -1 278.5984 758.1924)" style="fill:#F0F0F0;" width="135.638" height="6.353"/>
			<rect x="68.078" y="275.652" style="fill:#F5F5F5;" width="133.583" height="100.267"/>
			<path style="fill:#F0F0F0;" d="M188.461,320.878H81.279c-3.444,0-6.235-2.792-6.235-6.235v-20.414
				c0-3.444,2.792-6.235,6.235-6.235h107.182c3.444,0,6.235,2.792,6.235,6.235v20.414
				C194.696,318.086,191.904,320.878,188.461,320.878z"/>
			<path style="fill:#F0F0F0;" d="M188.461,363.578H81.279c-3.444,0-6.235-2.792-6.235-6.235v-20.414
				c0-3.443,2.792-6.235,6.235-6.235h107.182c3.444,0,6.235,2.792,6.235,6.235v20.414
				C194.696,360.786,191.904,363.578,188.461,363.578z"/>
			<path style="fill:#F5F5F5;" d="M99.534,306.691h70.671c1.086,0,1.974-0.888,1.974-1.974v-0.562c0-1.086-0.888-1.974-1.974-1.974
				H99.534c-1.086,0-1.974,0.888-1.974,1.974v0.562C97.561,305.802,98.449,306.691,99.534,306.691z"/>
			<path style="fill:#F5F5F5;" d="M99.534,349.39h70.671c1.086,0,1.974-0.888,1.974-1.974v-0.562c0-1.086-0.888-1.974-1.974-1.974
				H99.534c-1.086,0-1.974,0.888-1.974,1.974v0.562C97.561,348.502,98.449,349.39,99.534,349.39z"/>
		</g>
		<g>
			<g>
				<g>
					
						<rect x="386.463" y="169.702" transform="matrix(-1 -1.224647e-16 1.224647e-16 -1 808.6943 545.1486)" style="fill:#F0F0F0;" width="35.769" height="205.744"/>
					
						<rect x="278.009" y="375.446" transform="matrix(-1 -1.224647e-16 1.224647e-16 -1 693.3729 757.8441)" style="fill:#F0F0F0;" width="137.354" height="6.952"/>
					<rect x="271.141" y="169.702" style="fill:#F5F5F5;" width="115.321" height="205.744"/>
					<path style="fill:#F0F0F0;" d="M366.447,319.775h-75.29c-3.288,0-5.953-2.665-5.953-5.953v-24.078
						c0-3.288,2.665-5.953,5.953-5.953h75.29c3.288,0,5.953,2.665,5.953,5.953v24.078C372.4,317.11,369.735,319.775,366.447,319.775
						z"/>
					<path style="fill:#F0F0F0;" d="M366.447,362.321h-75.29c-3.288,0-5.953-2.665-5.953-5.953V332.29
						c0-3.288,2.665-5.953,5.953-5.953h75.29c3.288,0,5.953,2.665,5.953,5.953v24.077
						C372.4,359.655,369.735,362.321,366.447,362.321z"/>
					<path style="fill:#F0F0F0;" d="M366.447,277.229h-75.29c-3.288,0-5.953-2.665-5.953-5.953v-82.496
						c0-3.288,2.665-5.953,5.953-5.953h75.29c3.288,0,5.953,2.665,5.953,5.953v82.496
						C372.4,274.564,369.735,277.229,366.447,277.229z"/>
				</g>
				
					<rect x="266.375" y="163.756" transform="matrix(-1 -1.224647e-16 1.224647e-16 -1 652.8381 333.4582)" style="fill:#F0F0F0;" width="120.088" height="5.947"/>
				<rect x="386.463" y="163.756" style="fill:#E6E6E6;" width="40.767" height="5.947"/>
			</g>
			<g>
				<g>
					<rect x="337.298" y="133.543" style="fill:#F0F0F0;" width="29.69" height="30.213"/>
					
						<rect x="284.624" y="133.543" transform="matrix(-1 -1.224647e-16 1.224647e-16 -1 621.9219 297.2984)" style="fill:#F5F5F5;" width="52.675" height="30.213"/>
					<rect x="284.313" y="138.098" style="opacity:0.7;fill:#E6E6E6;" width="82.675" height="2.441"/>
				</g>
				<g>
					<rect x="337.298" y="132.065" style="fill:#F0F0F0;" width="31.329" height="7.06"/>
					
						<rect x="282.985" y="132.065" transform="matrix(-1 -1.224647e-16 1.224647e-16 -1 620.2833 271.1907)" style="fill:#F5F5F5;" width="54.313" height="7.06"/>
				</g>
			</g>
			<g>
				<g>
					<rect x="385.529" y="144.366" style="fill:#F0F0F0;" width="19.054" height="19.39"/>
					
						<rect x="351.725" y="144.366" transform="matrix(-1 -1.224647e-16 1.224647e-16 -1 737.254 308.1217)" style="fill:#F5F5F5;" width="33.805" height="19.39"/>
					<rect x="351.526" y="147.289" style="opacity:0.7;fill:#E6E6E6;" width="53.058" height="1.566"/>
				</g>
				<g>
					<rect x="385.529" y="143.418" style="fill:#F0F0F0;" width="20.106" height="4.531"/>
					
						<rect x="350.673" y="143.418" transform="matrix(-1 -1.224647e-16 1.224647e-16 -1 736.2024 291.3668)" style="fill:#F5F5F5;" width="34.856" height="4.531"/>
				</g>
			</g>
		</g>
		<g>
			
				<rect x="128.061" y="76.236" transform="matrix(-1 -1.224647e-16 1.224647e-16 -1 294.378 264.1309)" style="fill:#F0F0F0;" width="38.256" height="111.659"/>
			
				<rect x="119.846" y="76.236" transform="matrix(-1 -1.224647e-16 1.224647e-16 -1 283.6951 264.1309)" style="fill:#F5F5F5;" width="44.003" height="111.659"/>
			
				<rect x="90.406" y="113.75" transform="matrix(6.123234e-17 -1 1 6.123234e-17 9.7822 273.9131)" style="fill:#FFFFFF;" width="102.883" height="36.63"/>
			
				<rect x="101.775" y="122.629" transform="matrix(6.123234e-17 -1 1 6.123234e-17 9.7822 273.9131)" style="fill:#F5F5F5;" width="80.145" height="18.873"/>
		</g>
		<g>
			
				<rect x="73.076" y="100.286" transform="matrix(-1 -1.224647e-16 1.224647e-16 -1 184.4072 312.2309)" style="fill:#F0F0F0;" width="38.256" height="111.659"/>
			
				<rect x="64.861" y="100.286" transform="matrix(-1 -1.224647e-16 1.224647e-16 -1 173.7243 312.2309)" style="fill:#F5F5F5;" width="44.003" height="111.659"/>
			
				<rect x="35.421" y="137.8" transform="matrix(6.123234e-17 -1 1 6.123234e-17 -69.2533 242.9776)" style="fill:#FFFFFF;" width="102.883" height="36.63"/>
			<path style="fill:#F5F5F5;" d="M96.299,123.583v65.064c0,4.165-3.376,7.54-7.54,7.54h-3.792c-4.164,0-7.54-3.376-7.54-7.54
				v-65.064c0-4.164,3.376-7.54,7.54-7.54h3.792C92.923,116.043,96.299,119.419,96.299,123.583z"/>
		</g>
		<g>
			
				<rect x="181.35" y="116.309" transform="matrix(-1 -1.224647e-16 1.224647e-16 -1 400.955 344.2759)" style="fill:#F0F0F0;" width="38.256" height="111.659"/>
			
				<rect x="173.135" y="116.309" transform="matrix(-1 -1.224647e-16 1.224647e-16 -1 390.2721 344.2759)" style="fill:#F5F5F5;" width="44.003" height="111.659"/>
			
				<rect x="143.695" y="153.823" transform="matrix(6.123234e-17 -1 1 6.123234e-17 22.9981 367.274)" style="fill:#FFFFFF;" width="102.883" height="36.63"/>
			<path style="fill:#F5F5F5;" d="M204.573,139.606v65.064c0,4.164-3.376,7.54-7.54,7.54h-3.792c-4.164,0-7.54-3.376-7.54-7.54
				v-65.064c0-4.164,3.376-7.54,7.54-7.54h3.792C201.197,132.065,204.573,135.441,204.573,139.606z"/>
		</g>
	</g>
</g>
<g id="Background_Simple" style="display:none;">
	<g style="display:inline;">
		<path style="fill:#407BFF;" d="M247.588,178.663c-75.526-1.345-147.224-25.373-176.403,55.284
			c-34.82,96.251,43.101,147.239,136.347,138.851c50.381-4.532,127.138-60.345,145.739-107.494
			c9.381-23.778,15.563-76.626-5.312-93.168C315.207,146.182,284.945,179.328,247.588,178.663z"/>
		<path style="opacity:0.9;fill:#FFFFFF;" d="M247.588,178.663c-75.526-1.345-147.224-25.373-176.403,55.284
			c-34.82,96.251,43.101,147.239,136.347,138.851c50.381-4.532,127.138-60.345,145.739-107.494
			c9.381-23.778,15.563-76.626-5.312-93.168C315.207,146.182,284.945,179.328,247.588,178.663z"/>
	</g>
</g>
<g id="Shadow_1_">
	<ellipse id="_x3C_Path_x3E__322_" style="fill:#F5F5F5;" cx="250" cy="416.238" rx="193.889" ry="11.323"/>
</g>
<g id="Email">
	<g>
		<g>
			<path style="fill:#407BFF;" d="M382.12,300.383H147.721c-5.925,0-10.536-4.848-10.246-10.773l8.868-181.35
				c0.29-5.925,5.375-10.773,11.3-10.773h234.399c5.925,0,10.536,4.848,10.246,10.773l-8.868,181.35
				C393.13,295.535,388.045,300.383,382.12,300.383z"/>
			<path style="opacity:0.8;fill:#FFFFFF;" d="M382.12,300.383H147.721c-5.925,0-10.536-4.848-10.246-10.773l8.868-181.35
				c0.29-5.925,5.375-10.773,11.3-10.773h234.399c5.925,0,10.536,4.848,10.246,10.773l-8.868,181.35
				C393.13,295.535,388.045,300.383,382.12,300.383z"/>
		</g>
		<rect x="215" y="94.344" style="fill:#407BFF;" width="4.788" height="0.898"/>
		<rect x="190.012" y="94.344" style="fill:#407BFF;" width="19.601" height="0.898"/>
		<path style="fill:#407BFF;" d="M392.042,97.487H157.643c-5.925,0-11.01,4.848-11.3,10.773h255.945
			C402.578,102.335,397.967,97.487,392.042,97.487z"/>
		<path style="fill:#FFFFFF;" d="M389.496,127.113H157.291c-1.598,0-2.829-1.295-2.751-2.893l0.288-5.885
			c0.078-1.598,1.437-2.893,3.034-2.893h232.204c1.598,0,2.829,1.295,2.751,2.893l-0.288,5.885
			C392.452,125.818,391.093,127.113,389.496,127.113z"/>
		<path style="opacity:0.3;fill:#407BFF;" d="M225.238,124.32h-62.903c-0.833,0-1.475-0.675-1.435-1.508l0.15-3.068
			c0.041-0.833,0.749-1.508,1.582-1.508h62.903c0.833,0,1.475,0.675,1.434,1.508l-0.15,3.068
			C226.779,123.645,226.071,124.32,225.238,124.32z"/>
		<path style="fill:#FFFFFF;" d="M388.614,145.146H156.41c-1.598,0-2.83-1.295-2.751-2.893l0.288-5.885
			c0.078-1.598,1.437-2.893,3.034-2.893h232.204c1.598,0,2.829,1.295,2.751,2.893l-0.288,5.885
			C391.57,143.851,390.211,145.146,388.614,145.146z"/>
		<path style="opacity:0.3;fill:#407BFF;" d="M234.592,142.353h-73.139c-0.833,0-1.475-0.675-1.434-1.508l0.15-3.068
			c0.041-0.833,0.749-1.508,1.582-1.508h73.139c0.833,0,1.475,0.675,1.434,1.508l-0.15,3.068
			C236.134,141.678,235.425,142.353,234.592,142.353z"/>
		<path style="fill:#FFFFFF;" d="M384.98,282.9H152.776c-1.598,0-2.829-1.295-2.751-2.893l6.051-123.737
			c0.078-1.598,1.437-2.893,3.034-2.893h232.204c1.598,0,2.829,1.295,2.751,2.893l-6.051,123.737
			C387.936,281.605,386.578,282.9,384.98,282.9z"/>
		<path style="opacity:0.3;fill:#407BFF;" d="M201.597,162.738H160.55c-0.833,0-1.475-0.675-1.434-1.508l0.15-3.069
			c0.041-0.833,0.749-1.508,1.582-1.508h41.047c0.833,0,1.475,0.675,1.434,1.508l-0.15,3.069
			C203.138,162.063,202.43,162.738,201.597,162.738z"/>
		<path style="opacity:0.3;fill:#407BFF;" d="M279.404,175.185H159.88c-0.833,0-1.475-0.675-1.434-1.508l0.15-3.068
			c0.041-0.833,0.749-1.508,1.582-1.508h119.524c0.833,0,1.475,0.675,1.435,1.508l-0.15,3.068
			C280.945,174.51,280.237,175.185,279.404,175.185z"/>
		<path style="opacity:0.3;fill:#407BFF;" d="M257.159,184.451h-97.725c-0.833,0-1.475-0.675-1.434-1.508l0.15-3.068
			c0.041-0.833,0.749-1.508,1.582-1.508h97.725c0.833,0,1.475,0.675,1.435,1.508l-0.15,3.068
			C258.7,183.776,257.992,184.451,257.159,184.451z"/>
		<path style="fill:#407BFF;" d="M363.447,293.65h17.207c1.975,0,3.67-1.616,3.767-3.591l0,0c0.097-1.975-1.44-3.591-3.415-3.591
			h-17.207c-1.975,0-3.67,1.616-3.767,3.591l0,0C359.934,292.034,361.471,293.65,363.447,293.65z"/>
		<path style="opacity:0.4;fill:#407BFF;" d="M344.093,290.059c-0.073,1.488,1.074,2.693,2.562,2.693
			c1.487,0,2.752-1.206,2.825-2.693c0.073-1.487-1.074-2.693-2.562-2.693C345.43,287.365,344.165,288.571,344.093,290.059z"/>
		<path style="opacity:0.4;fill:#407BFF;" d="M331.368,290.059c-0.073,1.488,1.074,2.693,2.562,2.693
			c1.487,0,2.752-1.206,2.825-2.693c0.073-1.487-1.074-2.693-2.562-2.693C332.706,287.365,331.441,288.571,331.368,290.059z"/>
		<path style="opacity:0.4;fill:#407BFF;" d="M318.644,290.059c-0.073,1.488,1.074,2.693,2.562,2.693
			c1.488,0,2.752-1.206,2.825-2.693c0.073-1.487-1.074-2.693-2.562-2.693C319.982,287.365,318.717,288.571,318.644,290.059z"/>
		<path style="opacity:0.1;fill:#407BFF;" d="M266.995,271.85l0.027-0.6l0.096-2.22c0.06-1.48,0.04-2.95,0.031-4.43
			c-0.061-2.94-0.224-5.87-0.563-8.75c-0.338-2.89-0.768-5.76-1.353-8.59c-0.157-0.72-0.315-1.44-0.494-2.15l2.437-1.99
			c0,0-3.95-13.74-7.971-14.74c0,0-0.029-0.01-0.097-0.02c-0.262-0.06-0.537-0.1-0.806-0.11c-2.396-0.34-9.255-1.2-16.334-1.13
			c-3.11-2.95-2.624-9.05-1.51-14.44c0.203-0.33,0.395-0.66,0.567-0.98c4.06-2.56,8.016-7.19,9.615-12.69
			c2.476,0.57,6.19,0.54,10.769-2.24c-1.728,0.45-3.464,0.42-4.92,0.23c3.952-1.49,6.816-5.64,6.652-10.03
			c-0.184-5.02-4.251-8.45-9.083-7.66c-2.533,0.41-4.776,1.91-6.301,3.97c-0.129-0.01-0.269-0.01-0.399-0.01
			c-1.273-0.99-3.009-1.64-5.35-1.71c-4.819-6.14-25.697-4.45-29.095,3.77c-1.804,4.38-0.617,6.96,1.398,8.48
			c-0.372,1.49-0.583,3.05-0.576,4.63c-0.245,0.19-0.495,0.42-0.739,0.69c-0.187,0.21-0.184,0.5,0.004,0.67
			c0.127,0.1,0.295,0.12,0.452,0.06c0.084-0.03,0.16-0.08,0.219-0.15l0.102-0.09c0.109,1.56,0.447,3.13,1.027,4.68
			c0.071,3.72,0.74,7.3,1.757,10.12c2.033,5.64,7.525,7.88,13.046,6.63c0.028,0.4,0.067,0.8,0.066,1.2c0.01,0,0.02,0,0.02,0
			c-0.015,2.68-1.341,4.51-6.327,5.96c-2.712,0.4-5.561,0.94-8.139,1.47c-3.196,0.67-5.985,2.6-7.845,5.16
			c-3.808,4.1-8.565,17.12-8.565,17.12l3.131,1.7c-0.34,1.32-0.68,2.64-1.04,3.96c-0.018,0.06-0.035,0.11-0.052,0.17h-22.49
			c-3.1,0-5.497,2.54-5.336,5.64l0.553,10.23c-0.088,0.06-0.174,0.11-0.255,0.19l-1.877,1.76l0.43,8.93c0,0,1.03,0.7,2.35,1.24
			l0.263,5.02c0.036,0.65,0.187,1.27,0.421,1.85c-11.031,1.02-17.074,3.791-18.572,7.73h90.696c0.447-2.69,0.683-5.69,0.682-9.02
			l0.856-0.05c0.474-0.03,0.834-0.34,0.709-0.61l-0.799-3.58c-0.077-0.18-0.344-0.28-0.645-0.27l-0.051,0.01
			c0.039-1.08,0.077-2.15,0.122-3.2c2.439,0.01,4.957-0.13,7.699-0.69c1.719-0.38,3.545-0.89,5.573-2.04
			c1.005-0.58,2.065-1.36,3.042-2.42c0.965-1.05,1.769-2.4,2.223-3.75c0.237-0.68,0.383-1.34,0.475-1.98
			C266.956,272.46,266.975,272.16,266.995,271.85z M257.692,273.11c-0.03,0.08-0.162,0.25-0.448,0.45
			c-0.554,0.42-1.581,0.86-2.693,1.19c-1.843,0.57-3.966,0.9-6.144,1.12c0.497-5.41,1.356-11.15,2.995-18.52
			c0.126-0.59,0.264-1.2,0.403-1.81c0.063-0.25,0.115-0.5,0.178-0.76c0.083-0.33,0.155-0.66,0.237-0.99
			c0.392,0.61,0.635,0.97,0.635,0.97l2.59-2.1c0.388,1.88,0.753,3.78,1.035,5.71c0.364,2.61,0.664,5.25,0.882,7.9
			c0.069,1.33,0.188,2.66,0.225,4l0.097,2.74C257.69,273.05,257.724,273.02,257.692,273.11z"/>
	</g>
</g>
<g id="Character_1_">
	<g>
		<g>
			<path style="fill:#407BFF;" d="M264.06,331.847h-98.282c-0.925,0-1.594-0.883-1.344-1.773l0.031-0.112
				c1.95-6.958,9.171-12.599,16.13-12.599h86.741c0.925,0,1.594,0.883,1.344,1.773l-3.276,11.691
				C265.235,331.43,264.686,331.847,264.06,331.847z"/>
			<g>
				<polygon style="fill:#407BFF;" points="265.973,416.238 269.881,416.238 255.218,331.847 251.31,331.847 				"/>
				<polygon style="opacity:0.6;fill:#FFFFFF;" points="265.973,416.238 269.881,416.238 255.218,331.847 251.31,331.847 				"/>
			</g>
			<g>
				<polygon style="fill:#407BFF;" points="243.978,416.238 247.887,416.238 240.555,331.847 236.647,331.847 				"/>
				<polygon style="opacity:0.6;fill:#FFFFFF;" points="243.978,416.238 247.887,416.238 240.555,331.847 236.647,331.847 				"/>
			</g>
			<g>
				<polygon style="fill:#407BFF;" points="165.838,416.238 161.929,416.238 176.592,331.847 180.501,331.847 				"/>
				<polygon style="opacity:0.6;fill:#FFFFFF;" points="165.838,416.238 161.929,416.238 176.592,331.847 180.501,331.847 				"/>
			</g>
			<g>
				<polygon style="fill:#407BFF;" points="187.833,416.238 183.924,416.238 191.256,331.847 195.164,331.847 				"/>
				<polygon style="opacity:0.6;fill:#FFFFFF;" points="187.833,416.238 183.924,416.238 191.256,331.847 195.164,331.847 				"/>
			</g>
		</g>
		<g>
			<g>
				<path style="fill:#263238;" d="M242.939,186.967c0.832,5.015-2.325,9.716-7.052,10.501c-4.727,0.785-9.234-2.644-10.066-7.659
					c-0.833-5.015,2.325-9.716,7.052-10.501C237.599,178.523,242.106,181.952,242.939,186.967z"/>
				<path style="fill:#263238;" d="M228.445,197.573c0,0,6.13,4.394,14.025-0.798c-4.106,1.083-8.656-0.658-8.656-0.658
					L228.445,197.573z"/>
				<path style="fill:#407BFF;" d="M233.978,190.118c0.728,4.383-1.836,8.459-5.726,9.105c-3.89,0.646-7.633-2.384-8.36-6.767
					c-0.728-4.383,1.836-8.459,5.725-9.105C229.508,182.706,233.251,185.735,233.978,190.118z"/>
				<path style="fill:#263238;" d="M220.111,213.556c7.778-2.042,17.222-15.002,8.838-27.813c-3.171,0-11.854,2.924-11.854,2.924
					L220.111,213.556z"/>
				<path style="fill:#263238;" d="M199.874,183.82c-6.025,5.326-8.884,19.766,4.635,28.813c2.831-1.428,9.267-7.949,9.267-7.949
					L199.874,183.82z"/>
				<path style="fill:#FF8B7B;" d="M201.604,243.405c-0.049,1.463-0.11,2.722-0.227,4.058c-0.107,1.318-0.23,2.627-0.374,3.932
					c-0.269,2.613-0.636,5.207-1.064,7.79c-0.855,5.167-1.964,10.289-3.345,15.348l-1.09,3.78l-1.198,3.751
					c-0.517,1.644-1.596,3.678-3.183,5.083c-1.576,1.456-3.488,2.33-5.24,2.728c-3.544,0.772-6.555,0.266-9.317-0.431
					c-1.38-0.372-2.702-0.82-3.974-1.362c-1.29-0.544-2.474-1.089-3.757-1.831l1.972-4.683c1.076,0.212,2.31,0.469,3.465,0.627
					c1.174,0.154,2.332,0.292,3.461,0.342c2.231,0.124,4.439-0.063,5.82-0.676c0.688-0.303,1.101-0.643,1.33-0.993
					c0.124-0.173,0.205-0.366,0.296-0.589c0.044-0.113,0.086-0.233,0.122-0.372c0.018-0.069,0.04-0.134,0.053-0.213l0.074-0.304
					l0.91-3.584l0.833-3.605c1.062-4.82,1.922-9.69,2.624-14.579c0.357-2.443,0.656-4.895,0.931-7.34
					c0.138-1.223,0.255-2.447,0.356-3.664c0.096-1.199,0.211-2.478,0.27-3.557L201.604,243.405z"/>
				<path style="fill:#407BFF;" d="M194.366,233.877c-3.642,2.224-7.385,18.082-7.385,18.082l15.727,7.988
					c0,0,6.705-17.138,3.578-21.722C203.03,233.452,199.68,230.632,194.366,233.877z"/>
				<path style="opacity:0.2;" d="M191.323,245.807c-0.634,1.764-0.771,4.943,0.056,8.386l11.329,5.753
					c0,0,3.915-10.004,4.36-16.772C203.057,239.231,193.855,238.727,191.323,245.807z"/>
				<path style="fill:#FF8B7B;" d="M172.777,282.228l-10.123-6.619l1.583,8.929c0,0,3.698,2.315,5.962,1.805L172.777,282.228z"/>
				<path style="fill:#407BFF;" d="M191.795,241.253c0.585,8.84,2.505,24.661,8.24,50.689l40.677-2.398
					c-1.659-16.515-2.279-26.722,3.63-61.164c0,0-8.632-1.352-17.407-1.258c-6.864,0.074-12.485,0.186-18.47,1.089
					c-2.662,0.402-5.437,0.938-7.947,1.472C195.137,230.83,191.432,235.764,191.795,241.253z"/>
				<path style="opacity:0.2;" d="M211.335,235.991c0,0,3.997,5.062,9.442,6.697c5.445,1.635,6.98-9.466,6.158-15.565
					C221.9,225.866,211.335,235.991,211.335,235.991z"/>
				<path style="fill:#FFFFFF;" d="M211.335,235.991c0,0,4.518,4.528,9.962,6.163c5.445,1.635,6.46-8.932,5.638-15.031
					C221.9,225.866,211.335,235.991,211.335,235.991z"/>
				<path style="opacity:0.2;" d="M211.335,235.991c0,0-2.119,4.194-7.452,6.163c-5.333,1.969,0.346-11.728,4.582-13.941
					C213.5,226.955,211.335,235.991,211.335,235.991z"/>
				<path style="fill:#FFFFFF;" d="M211.335,235.991c0,0-2.29,3.873-7.735,5.508c-5.445,1.635,0.629-11.074,4.865-13.286
					C213.5,226.955,211.335,235.991,211.335,235.991z"/>
				<g>
					<path style="fill:#FFFFFF;" d="M241.18,287.121l1.255,3.58c0.159,0.274-0.159,0.582-0.629,0.61l-41.864,2.468
						c-0.367,0.022-0.681-0.14-0.718-0.369l-0.581-3.619c-0.04-0.251,0.265-0.483,0.666-0.507l41.191-2.428
						C240.803,286.837,241.078,286.945,241.18,287.121z"/>
				</g>
				<g>
					<g>
						<path style="fill:#263238;" d="M235.784,292.061l1.103-0.065c0.22-0.013,0.38-0.136,0.357-0.274l-0.796-4.7
							c-0.023-0.138-0.222-0.24-0.442-0.227l-1.103,0.065c-0.22,0.013-0.38,0.136-0.357,0.274l0.796,4.7
							C235.365,291.972,235.564,292.074,235.784,292.061z"/>
					</g>
					<g>
						<path style="fill:#263238;" d="M203.065,293.99l1.103-0.065c0.22-0.013,0.38-0.136,0.357-0.274l-0.796-4.7
							c-0.023-0.138-0.222-0.24-0.442-0.227l-1.103,0.065c-0.22,0.013-0.38,0.136-0.357,0.274l0.796,4.7
							C202.647,293.901,202.846,294.002,203.065,293.99z"/>
					</g>
					<g>
						<path style="fill:#263238;" d="M219.357,293.029l1.103-0.065c0.22-0.013,0.38-0.136,0.357-0.274l-0.796-4.7
							c-0.023-0.138-0.222-0.24-0.442-0.227l-1.103,0.065c-0.22,0.013-0.38,0.136-0.357,0.274l0.796,4.7
							C218.938,292.94,219.137,293.042,219.357,293.029z"/>
					</g>
				</g>
				<path style="opacity:0.2;" d="M243.45,233.696c-3.302,1.475-6.52,4.769-7.867,8.153c-1.817,4.558,3.422,13.635,4.667,15.673
					C240.833,251.106,241.856,243.455,243.45,233.696z"/>
				<path style="fill:#FF8B7B;" d="M224.011,208.663c-0.815,6.012-1.467,14.739,2.925,18.46c0,0-8.242,4.843-15.537,15.031
					c-7.087-9.37-2.933-13.941-2.933-13.941c6.534-1.973,6.204-4.65,4.778-9.199L224.011,208.663z"/>
				<path style="opacity:0.2;" d="M219.621,212.886l-6.373,6.121c0.341,1.077,0.622,2.172,0.763,3.245
					c2.51-0.515,6.365-2.907,6.746-5.692C220.937,215.242,219.873,213.489,219.621,212.886z"/>
				<path style="fill:#FF8B7B;" d="M223.806,194.616c1.579,9.831,2.457,13.959-1.325,20.035c-5.689,9.139-18.109,8.928-22.594-0.233
					c-4.036-8.246-5.94-22.938,2.687-28.926C211.074,179.592,222.227,184.784,223.806,194.616z"/>
				<path style="fill:#263238;" d="M221.111,181.556c-10-7.167-34.684-4.128-30.889,4.187c4.56,9.991,12.389,10.258,12.389,10.258
					s-3.12-1.5-3.055-3.5c7.335-2.278,12.944,2.331,16.111-0.676c-1.389,5.676,7.722,11.045,7.722,11.045s3.844-3.135,6-8.038
					S229.833,181.833,221.111,181.556z"/>
				<path style="fill:#263238;" d="M208.917,200.659c0.177,0.79-0.098,1.524-0.614,1.639c-0.516,0.116-1.078-0.431-1.255-1.22
					c-0.177-0.79,0.098-1.523,0.614-1.639C208.178,199.323,208.74,199.869,208.917,200.659z"/>
				<path style="fill:#263238;" d="M199.992,202.66c0.177,0.79-0.098,1.523-0.614,1.639c-0.516,0.116-1.078-0.431-1.255-1.22
					c-0.177-0.79,0.098-1.524,0.614-1.639C199.253,201.324,199.815,201.87,199.992,202.66z"/>
				<path style="fill:#263238;" d="M198.975,201.432l-2.019-0.121C196.956,201.311,198.261,202.574,198.975,201.432z"/>
				<path style="fill:#FF5652;" d="M203.063,203.465c0,0-0.578,3.7-1.685,5.671c1.261,0.739,2.933-0.103,2.933-0.103
					L203.063,203.465z"/>
				<path style="fill:#263238;" d="M209.311,211.16c-0.351,0.138-0.731,0.256-1.144,0.348c-0.128,0.029-0.255-0.051-0.284-0.179
					c-0.029-0.129,0.05-0.262,0.18-0.284c3.466-0.783,4.541-3.561,4.552-3.589c0.046-0.124,0.182-0.186,0.306-0.14
					c0.123,0.046,0.186,0.183,0.14,0.306C213.019,207.732,212.12,210.059,209.311,211.16z"/>
				<path style="fill:#FF8B7B;" d="M227.6,202.23c-0.304,2.042-1.523,3.753-2.902,4.74c-2.075,1.485-3.981-0.16-4.132-2.573
					c-0.136-2.172,0.78-5.562,3.212-6.091C226.175,197.786,227.948,199.896,227.6,202.23z"/>
				<path style="fill:#263238;" d="M210.281,196.395c-0.194,0.051-0.406-0.025-0.52-0.202c-1.19-1.849-4.018-1.99-4.046-1.991
					c-0.262-0.011-0.466-0.233-0.455-0.495c0.011-0.261,0.23-0.466,0.495-0.455c0.136,0.006,3.351,0.168,4.805,2.426
					c0.142,0.221,0.078,0.515-0.143,0.657C210.375,196.363,210.328,196.383,210.281,196.395z"/>
				<path style="fill:#263238;" d="M194.911,199.862c-0.151,0.059-0.328,0.04-0.466-0.067c-0.207-0.161-0.244-0.46-0.083-0.667
					c1.613-2.075,3.803-1.918,3.895-1.91c0.262,0.022,0.456,0.252,0.434,0.513c-0.022,0.261-0.25,0.454-0.512,0.435
					c-0.088-0.007-1.785-0.102-3.066,1.547C195.058,199.781,194.988,199.832,194.911,199.862z"/>
				<g>
					<polygon style="fill:#FF8B7B;" points="149.237,407.383 140.391,403.462 148.985,380.919 157.831,384.841 					"/>
					<path style="fill:#263238;" d="M140.054,401.591l10.674,3.621c0.388,0.132,0.612,0.509,0.538,0.906l-1.649,8.858
						c-0.171,0.919-1.206,1.492-2.096,1.173c-3.7-1.327-5.419-2.153-10.113-3.746c-2.888-0.98-9.041-1.997-13.029-3.35
						c-3.9-1.323-2.863-5.368-1.081-5.162c7.989,0.925,11.746-0.999,14.969-2.255C138.849,401.41,139.486,401.398,140.054,401.591z"
						/>
					<g style="opacity:0.2;">
						<polygon points="157.831,384.848 148.981,380.925 143.86,394.375 153.163,397.106 						"/>
					</g>
					<g>
						<path style="fill:#263238;" d="M219.468,290.796c0,0-54.594,3.921-56.751,22.439c-3.67,31.51-19.008,75.051-19.008,75.051
							l12.327,5.223c0,0,22.787-41.925,29.124-69.293c10.571-5.98,63.237,15.441,55.553-34.672L219.468,290.796z"/>
					</g>
					<polygon style="fill:#407BFF;" points="157.383,395.323 141.156,390.349 142.326,384.371 160.344,389.708 					"/>
					<path style="fill:#407BFF;" d="M134.659,401.141c-0.022-0.033-0.043-0.067-0.063-0.103c-0.22-0.398-0.209-0.843,0.033-1.322
						c0.182-0.361,0.461-0.461,0.662-0.48c1.275-0.125,3.529,2.716,3.781,3.04c0.065,0.079,0.067,0.177,0.021,0.261
						c-0.046,0.083-0.136,0.131-0.231,0.122C137.576,402.536,135.357,402.177,134.659,401.141z M138.335,402.121
						c-0.935-1.11-2.326-2.478-2.997-2.412c-0.085,0.008-0.193,0.041-0.285,0.221c-0.169,0.335-0.182,0.623-0.041,0.879
						C135.339,401.421,136.57,401.889,138.335,402.121z"/>
					<path style="fill:#407BFF;" d="M138.483,402.284c-0.696-1.034-1.482-3.261-0.961-4.161c0.11-0.191,0.383-0.493,0.97-0.371
						c0.372,0.078,0.656,0.29,0.851,0.624c0.723,1.265-0.193,4.005-0.232,4.121c-0.027,0.081-0.095,0.14-0.178,0.157
						c-0.083,0.017-0.168-0.012-0.224-0.075C138.636,402.498,138.56,402.398,138.483,402.284z M138.892,398.551
						c-0.121-0.179-0.284-0.288-0.497-0.333c-0.299-0.062-0.404,0.044-0.462,0.143c-0.352,0.608,0.203,2.514,0.862,3.542
						c0.257-0.929,0.566-2.537,0.135-3.291C138.918,398.591,138.905,398.571,138.892,398.551z"/>
				</g>
				<g>
					<polygon style="fill:#FF8B7B;" points="174.997,379.053 166.705,384.038 153.196,364.049 161.489,359.064 					"/>
					<path style="fill:#263238;" d="M164.98,383.239l9.098-6.654c0.331-0.242,0.768-0.209,1.051,0.081l6.301,6.44
						c0.654,0.668,0.528,1.844-0.245,2.39c-3.212,2.265-4.877,3.197-8.878,6.123c-2.462,1.8-6.83,6.251-10.229,8.737
						c-3.325,2.431-6.038-0.743-4.846-2.082c5.348-6.006,5.934-10.186,6.758-13.546C164.139,384.121,164.495,383.593,164.98,383.239
						z"/>
					<g style="opacity:0.2;">
						<polygon points="161.494,359.069 153.198,364.056 161.261,375.977 168.843,369.934 						"/>
					</g>
					<g>
						<path style="fill:#263238;" d="M195.015,291.942c0,0-57.652-2.651-61.005,15.688c-5.706,31.206,22.182,64.971,22.182,64.971
							l11.359-7.085c0,0-8.59-23.989-11.858-45.472c10.936-5.282,69.716,21.264,65.298-29.242L195.015,291.942z"/>
					</g>
					<path style="opacity:0.2;" d="M175.933,300.223c-0.928-0.004-1.844,0.21-2.684,0.606c-6.658,3.138-11.584,7.195-12.399,12.41
						c-0.31,1.98-0.67,4.01-1.07,6.07c0.66-0.01,1.36,0,2.11,0.03c0.32-2.07,0.6-4.11,0.83-6.1
						C163.364,307.682,168.733,303.44,175.933,300.223L175.933,300.223z"/>
					<polygon style="fill:#407BFF;" points="169.81,365.455 156.413,375.876 152.193,371.483 166.916,359.805 					"/>
					<path style="fill:#407BFF;" d="M161.51,387.395c-0.04-0.001-0.08-0.003-0.12-0.008c-0.452-0.049-0.81-0.313-1.063-0.787
						c-0.191-0.357-0.112-0.642-0.013-0.818c0.631-1.115,4.251-1.327,4.661-1.347c0.103-0.008,0.183,0.047,0.225,0.133
						c0.042,0.085,0.029,0.187-0.033,0.259C164.329,385.81,162.76,387.419,161.51,387.395z M164.425,384.95
						c-1.445,0.127-3.365,0.479-3.697,1.067c-0.042,0.074-0.078,0.182,0.018,0.36c0.177,0.331,0.405,0.507,0.696,0.539
						C162.13,387,163.221,386.262,164.425,384.95z"/>
					<path style="fill:#407BFF;" d="M164.644,384.923c-1.246-0.025-3.52-0.662-3.957-1.605c-0.093-0.2-0.183-0.597,0.254-1.007
						c0.278-0.26,0.614-0.37,0.999-0.338c1.45,0.136,3.167,2.459,3.239,2.558c0.05,0.069,0.06,0.158,0.026,0.236
						c-0.034,0.077-0.106,0.131-0.19,0.141C164.907,384.921,164.782,384.926,164.644,384.923z M161.824,382.443
						c-0.216-0.004-0.399,0.066-0.558,0.215c-0.223,0.209-0.196,0.356-0.148,0.46c0.295,0.637,2.174,1.279,3.393,1.33
						c-0.613-0.744-1.751-1.921-2.615-2.002C161.872,382.444,161.847,382.443,161.824,382.443z"/>
				</g>
				<path style="fill:#263238;" d="M207.9,199.431l-2.019-0.121C205.881,199.31,207.186,200.573,207.9,199.431z"/>
				<path style="fill:#FF8B7B;" d="M226.673,277.159l-9.666-4.905l2.333,9.932c0,0,6.205,1.734,9.091-1.277L226.673,277.159z"/>
				<path style="fill:#FF8B7B;" d="M249.335,238.758c0.415,0.833,0.706,1.467,1.027,2.185c0.308,0.702,0.593,1.4,0.872,2.101
					c0.556,1.4,1.081,2.802,1.564,4.215c0.953,2.831,1.749,5.7,2.462,8.587c0.711,2.888,1.244,5.817,1.692,8.755
					c0.199,1.474,0.404,2.946,0.533,4.428l0.196,2.222l0.049,0.599c0.016,0.31,0.035,0.612,0.033,0.929
					c-0.01,0.64-0.071,1.303-0.213,1.978c-0.28,1.351-0.914,2.704-1.747,3.755c-0.831,1.061-1.796,1.84-2.725,2.419
					c-1.876,1.152-3.636,1.66-5.306,2.044c-3.34,0.691-6.413,0.752-9.436,0.658c-6.036-0.233-11.737-1.21-17.469-2.645l0.86-5.008
					c5.488,0.321,11.143,0.417,16.472,0.034c2.649-0.215,5.284-0.569,7.462-1.262c1.071-0.33,2.033-0.775,2.537-1.189
					c0.257-0.202,0.373-0.376,0.393-0.454c0.019-0.085-0.017-0.058-0.027-0.101l-0.445-2.741c-0.215-1.337-0.5-2.665-0.743-3.996
					c-0.555-2.654-1.202-5.285-1.901-7.902c-0.721-2.61-1.547-5.19-2.45-7.729c-0.434-1.276-0.902-2.536-1.392-3.777l-0.753-1.838
					c-0.238-0.587-0.526-1.25-0.729-1.697L249.335,238.758z"/>
				<path style="fill:#407BFF;" d="M244.342,228.38c4.148,0.999,9.87,14.743,9.87,14.743l-12.826,11.638
					c0,0-8.775-10.777-7.373-16.145C235.474,233.026,239.609,227.24,244.342,228.38z"/>
				<polygon style="fill:#FF8B7B;" points="208.731,273.883 211.134,282.093 219.34,282.186 217.007,272.254 				"/>
				<g>
					<path style="fill:#FFFFFF;" d="M216.379,296.441h-42.051c-3.102,0-6.102-2.538-6.667-5.639l-4.99-27.371
						c-0.566-3.102,1.51-5.639,4.611-5.639h42.051c3.102,0,6.102,2.538,6.668,5.639l4.99,27.371
						C221.556,293.903,219.481,296.441,216.379,296.441z"/>
					<path style="opacity:0.5;fill:#407BFF;" d="M215.628,296.441h-41.3c-3.102,0-6.102-2.538-6.667-5.639l-4.99-27.371
						c-0.566-3.102,1.51-5.639,4.611-5.639h41.3c3.102,0,6.102,2.538,6.667,5.639l4.99,27.371
						C220.805,293.903,218.73,296.441,215.628,296.441z"/>
				</g>
				<g>
					<path style="fill:#FF8B7B;" d="M162.654,275.608l1.583,8.929l3.478-3.258l-0.934-6.649c-0.168-1.199-1.651-1.668-2.479-0.784
						L162.654,275.608z"/>
				</g>
			</g>
		</g>
	</g>
</g>
</svg>
