<?xml version="1.0" standalone="no"?>
<!DOCTYPE svg PUBLIC "-//W3C//DTD SVG 20010904//EN"
 "http://www.w3.org/TR/2001/REC-SVG-20010904/DTD/svg10.dtd">
<svg version="1.0" xmlns="http://www.w3.org/2000/svg"
 width="1563.000000pt" height="1563.000000pt" viewBox="0 0 1563.000000 1563.000000"
 preserveAspectRatio="xMidYMid meet">
<metadata>
Created by potrace 1.14, written by Peter Selinger 2001-2017
</metadata>
<g transform="translate(0.000000,1563.000000) scale(0.100000,-0.100000)"
fill="#000000" stroke="none">
<path d="M7217 15224 c-1 -1 -65 -5 -142 -9 -77 -4 -153 -9 -170 -10 -79 -6
-193 -17 -215 -20 -14 -2 -47 -6 -75 -10 -164 -20 -206 -26 -300 -41 -49 -8
-101 -17 -115 -20 -14 -2 -41 -7 -60 -10 -245 -39 -807 -192 -1125 -306 -130
-47 -387 -149 -424 -168 -9 -5 -74 -34 -146 -66 -172 -75 -505 -245 -615 -313
-8 -5 -55 -33 -105 -61 -152 -88 -598 -389 -700 -473 -11 -8 -69 -55 -130
-103 -318 -251 -657 -572 -931 -879 -58 -66 -171 -199 -263 -310 -73 -89 -282
-379 -384 -532 -261 -395 -473 -788 -647 -1203 -69 -165 -75 -179 -90 -220 -7
-19 -18 -48 -25 -65 -83 -193 -284 -889 -321 -1113 -2 -15 -13 -72 -24 -127
-17 -94 -30 -171 -46 -275 -8 -52 -10 -64 -19 -145 -4 -33 -9 -68 -10 -77 -2
-9 -6 -45 -10 -80 -3 -35 -8 -81 -10 -103 -28 -287 -28 -1017 0 -1305 2 -19 6
-66 9 -105 4 -38 8 -79 10 -90 2 -11 7 -51 10 -90 4 -38 9 -77 11 -85 4 -17
11 -62 20 -135 4 -27 8 -57 10 -65 2 -8 7 -31 10 -50 5 -32 28 -158 40 -220
87 -451 262 -1014 455 -1455 177 -407 327 -685 615 -1143 17 -26 73 -108 125
-181 52 -73 102 -143 110 -155 17 -25 281 -359 289 -366 3 -3 47 -52 96 -110
212 -246 508 -539 765 -755 52 -44 97 -83 100 -86 3 -3 65 -53 139 -112 448
-356 1010 -698 1521 -926 41 -18 98 -43 125 -56 237 -106 681 -263 953 -336
223 -60 386 -99 482 -115 14 -2 57 -11 95 -19 124 -26 443 -74 585 -89 318
-34 475 -41 855 -41 286 0 426 5 575 20 19 2 71 6 115 10 44 3 94 8 110 10 17
2 53 7 80 10 28 3 91 12 140 20 50 7 108 16 130 20 23 3 52 8 65 10 14 3 39 7
55 10 17 2 55 9 85 15 30 6 66 13 80 16 72 13 314 70 450 105 135 35 598 183
655 209 11 5 83 33 160 63 136 53 173 69 340 145 185 84 547 270 553 284 2 5
8 8 13 8 16 0 349 203 499 305 273 184 528 382 786 610 235 207 530 509 734
751 14 16 39 45 55 65 17 19 44 52 60 73 17 21 35 44 41 50 6 7 62 79 124 161
344 458 667 1014 879 1515 18 41 36 84 41 95 80 172 305 846 334 999 2 12 13
57 25 101 11 44 22 94 26 112 3 18 10 45 16 60 6 15 10 29 9 31 -2 2 9 73 17
107 7 31 51 288 58 337 3 23 8 54 10 68 4 26 11 87 20 168 3 26 7 63 10 82 2
19 7 71 11 115 3 44 8 96 10 115 15 151 23 730 9 731 -5 1 -776 2 -1712 3
l-1703 1 -1 -130 c0 -247 -10 -408 -35 -585 -9 -58 -17 -121 -20 -140 -2 -19
-7 -42 -9 -50 -3 -8 -7 -31 -10 -50 -6 -37 -32 -152 -60 -260 -41 -163 -129
-414 -208 -590 -211 -472 -488 -872 -852 -1228 -222 -216 -318 -296 -545 -454
-293 -203 -714 -412 -1019 -505 -269 -82 -314 -93 -601 -147 -41 -8 -91 -14
-160 -21 -36 -4 -76 -9 -89 -11 -143 -22 -609 -22 -776 0 -16 2 -61 7 -100 11
-38 3 -72 8 -75 10 -3 2 -27 6 -55 9 -27 4 -63 9 -80 11 -49 7 -256 53 -305
68 -25 7 -49 14 -55 16 -62 12 -333 98 -350 111 -5 4 -21 11 -35 15 -103 30
-453 200 -594 288 -11 7 -63 39 -115 71 -451 281 -895 721 -1196 1186 -38 58
-77 117 -87 132 -10 15 -18 29 -18 32 0 3 -14 29 -31 58 -170 285 -336 719
-425 1113 -13 56 -53 299 -59 360 -4 39 -9 78 -11 89 -23 129 -23 717 1 846 1
8 6 40 10 70 113 895 568 1778 1231 2390 33 30 82 75 109 100 62 57 288 232
375 291 274 185 604 352 920 466 179 64 475 142 635 168 11 1 34 5 50 8 161
30 421 50 677 51 98 1 158 5 159 11 0 14 0 3331 0 3378 l-1 38 -241 -3 c-132
-1 -241 -3 -242 -4z"/>
<path d="M13035 15223 c-47 -5 -238 -33 -260 -37 -375 -76 -717 -239 -1020
-487 -167 -136 -327 -314 -450 -498 -115 -173 -234 -423 -281 -591 -27 -94
-55 -213 -60 -249 -3 -19 -6 -37 -9 -41 -2 -4 -7 -38 -10 -76 -4 -38 -9 -72
-11 -76 -9 -15 -4 -425 6 -523 14 -134 23 -203 35 -265 3 -14 7 -40 10 -57 3
-18 12 -61 20 -95 8 -35 16 -74 19 -88 9 -51 66 -250 105 -365 206 -621 558
-1274 1051 -1949 112 -153 437 -564 480 -606 3 -3 30 -34 60 -70 30 -36 71
-83 92 -105 20 -22 48 -53 63 -70 114 -127 195 -200 244 -223 106 -49 226 -21
312 73 24 27 55 60 69 74 75 79 249 276 344 391 48 58 97 116 109 130 59 69
279 358 375 492 520 729 846 1364 1051 2053 12 39 23 79 25 90 2 11 9 38 14
60 12 43 41 177 46 210 12 76 38 252 45 310 9 71 7 492 -2 531 -3 12 -8 45
-12 75 -28 232 -136 548 -268 784 -186 333 -445 613 -762 824 -297 197 -590
307 -975 366 -41 7 -411 13 -455 8z m425 -660 c254 -39 477 -125 682 -263 114
-77 133 -93 263 -225 220 -222 352 -468 425 -790 25 -114 31 -162 35 -320 19
-705 -436 -1348 -1115 -1575 -193 -64 -315 -84 -530 -84 -141 -1 -201 5 -325
29 -22 5 -44 9 -50 10 -63 8 -239 72 -358 131 -422 209 -743 605 -855 1054
-41 165 -47 217 -47 415 0 168 5 233 26 323 6 26 13 58 15 72 11 56 79 240
121 324 98 199 259 403 421 533 26 21 49 41 52 44 16 19 179 119 262 161 150
75 331 136 460 153 25 4 68 10 95 14 74 13 327 9 423 -6z"/>
<path d="M13154 13783 c-22 -8 -50 -18 -64 -23 -14 -4 -117 -45 -230 -90 -113
-44 -252 -99 -310 -121 -58 -22 -118 -47 -135 -54 -54 -25 -465 -185 -475
-185 -5 0 -17 -11 -26 -25 -13 -20 -14 -31 -7 -48 11 -23 39 -35 633 -267 52
-20 183 -72 290 -114 376 -150 386 -152 488 -115 31 11 69 24 83 29 15 4 42
15 60 23 19 9 117 48 219 87 102 40 194 76 205 81 11 4 90 36 175 69 85 33
163 65 172 70 40 23 43 15 43 -104 1 -104 -1 -114 -20 -122 -25 -11 -31 -49
-14 -81 12 -22 10 -31 -19 -84 -58 -108 -41 -126 119 -125 152 2 163 16 107
132 -24 48 -29 68 -20 71 22 8 15 71 -11 87 -21 15 -22 21 -22 152 l1 137 64
24 c73 27 90 45 80 82 -5 19 -20 31 -61 48 -54 23 -505 201 -909 359 -118 47
-224 89 -235 94 -60 27 -129 32 -181 13z"/>
<path d="M12449 12743 c-31 -73 -50 -178 -51 -285 -1 -117 8 -136 84 -165 29
-12 196 -78 371 -147 264 -105 327 -126 370 -126 42 0 90 15 227 69 96 38 252
99 345 136 222 87 230 91 244 122 15 33 13 184 -5 267 -14 67 -42 157 -52 168
-4 4 -34 -4 -67 -17 -598 -237 -601 -238 -698 -236 -75 1 -92 6 -360 110 -155
60 -306 118 -335 130 l-53 21 -20 -47z"/>
</g>
</svg>
