<?xml version="1.0" encoding="utf-8"?>
<!-- Generator: Adobe Illustrator 27.5.0, SVG Export Plug-In . SVG Version: 6.00 Build 0)  -->
<svg version="1.1" id="Layer_1" xmlns="http://www.w3.org/2000/svg" xmlns:xlink="http://www.w3.org/1999/xlink" x="0px" y="0px"
	 viewBox="0 0 282.522 265.431" style="enable-background:new 0 0 282.522 265.431;" xml:space="preserve">
<g>
	<g>
		<path style="fill:#FFD986;" d="M276.51,122.173c12.065,40.17-38.706,90.924-113.402,113.364
			c-74.696,22.435-145.027,8.056-157.097-32.118c-12.067-40.17,38.704-90.926,113.401-113.366
			C194.111,67.618,264.443,81.999,276.51,122.173z"/>
		<path style="fill:#FFD986;" d="M251.154,54.148c10.1,33.62-32.393,76.102-94.911,94.883
			c-62.518,18.777-121.387,6.742-131.484-26.882c-10.1-33.62,32.394-76.102,94.91-94.881
			C182.189,8.492,241.055,20.526,251.154,54.148z"/>
	</g>
	<ellipse style="fill:#6ABBB7;" cx="140.873" cy="250.579" rx="133.327" ry="10.871"/>
	<ellipse style="fill:#34847A;" cx="141.317" cy="249.482" rx="106.063" ry="7.45"/>
	<g>
		<g>
			<g>
				<rect x="107.209" y="10.629" style="fill:#5282BD;" width="82.288" height="118.915"/>
				<rect x="110.382" y="13.135" style="fill:#2C4B71;" width="76.08" height="113.509"/>
				<rect x="111.271" y="14.703" style="fill:#D8EFF3;" width="74.163" height="110.767"/>
			</g>
			<rect x="145.771" y="13.135" style="fill:#5282BD;" width="5.164" height="116.362"/>
			<g>
				<rect x="109.458" y="50.282" style="fill:#5282BD;" width="77.79" height="4.546"/>
				<rect x="109.458" y="89.686" style="fill:#5282BD;" width="77.79" height="4.546"/>
			</g>
		</g>
		<g>
			<path style="fill:#8C8E90;" d="M196.624,7.583h-96.543c-0.696,0-1.26-0.564-1.26-1.26c0-0.696,0.564-1.26,1.26-1.26h96.543
				c0.696,0,1.26,0.564,1.26,1.26C197.884,7.019,197.32,7.583,196.624,7.583z"/>
			<g>
				<g>
					<g>
						<path style="fill:#DBD7D5;" d="M102.334,3.981v134.014c0,0,0.892-1.115,3.679,0c2.787,1.115,4.794,1.004,7.136,0
							c2.341-1.003,4.683-0.781,5.686,0.223c1.003,1.003,4.571,1.226,6.801-0.335V3.981H102.334z"/>
					</g>
					<g>
						<path style="fill:#D8804E;" d="M102.334,3.981v134.014c0,0,0.892-1.115,3.679,0c2.787,1.115,4.794,1.004,7.136,0
							c2.341-1.003,4.683-0.781,5.686,0.223c1.003,1.003,4.571,1.226,6.801-0.335V3.981H102.334z"/>
					</g>
					<g>
						<path style="fill:#C0C5C4;" d="M104.228,137.523c0.482,0.049,1.07,0.187,1.785,0.473c0.503,0.201,0.979,0.361,1.438,0.484
							L106.512,9.229L104.228,137.523z"/>
						<path style="fill:#C0C5C4;" d="M115.156,137.424c1.288-0.19,2.447-0.015,3.216,0.442l-0.935-127.753L115.156,137.424z"/>
					</g>
					<g>
						<path style="fill:#8C8E90;" d="M105.55,8.413L105.55,8.413c-0.159,0-0.289-0.13-0.289-0.289V4.689
							c0-0.159,0.13-0.29,0.289-0.29l0,0c0.159,0,0.289,0.13,0.289,0.29v3.435C105.84,8.283,105.709,8.413,105.55,8.413z"/>
						<path style="fill:#8C8E90;" d="M108.996,8.413L108.996,8.413c-0.159,0-0.289-0.13-0.289-0.289V4.689
							c0-0.159,0.13-0.29,0.289-0.29l0,0c0.159,0,0.29,0.13,0.29,0.29v3.435C109.286,8.283,109.156,8.413,108.996,8.413z"/>
						<path style="fill:#8C8E90;" d="M112.443,8.413L112.443,8.413c-0.159,0-0.29-0.13-0.29-0.289V4.689
							c0-0.159,0.13-0.29,0.29-0.29l0,0c0.159,0,0.289,0.13,0.289,0.29v3.435C112.732,8.283,112.602,8.413,112.443,8.413z"/>
						<path style="fill:#8C8E90;" d="M115.89,8.413L115.89,8.413c-0.159,0-0.29-0.13-0.29-0.289V4.689c0-0.159,0.13-0.29,0.29-0.29
							l0,0c0.159,0,0.289,0.13,0.289,0.29v3.435C116.179,8.283,116.049,8.413,115.89,8.413z"/>
						<path style="fill:#8C8E90;" d="M119.336,8.413L119.336,8.413c-0.159,0-0.289-0.13-0.289-0.289V4.689
							c0-0.159,0.13-0.29,0.289-0.29l0,0c0.159,0,0.289,0.13,0.289,0.29v3.435C119.625,8.283,119.495,8.413,119.336,8.413z"/>
						<path style="fill:#8C8E90;" d="M122.782,8.413L122.782,8.413c-0.159,0-0.29-0.13-0.29-0.289V4.689
							c0-0.159,0.13-0.29,0.29-0.29l0,0c0.159,0,0.289,0.13,0.289,0.29v3.435C123.072,8.283,122.941,8.413,122.782,8.413z"/>
					</g>
				</g>
				<g>
					<g>
						<path style="fill:#DBD7D5;" d="M194.371,3.981v134.014c0,0-0.892-1.115-3.679,0c-2.787,1.115-4.794,1.004-7.135,0
							c-2.341-1.003-4.683-0.781-5.686,0.223c-1.003,1.003-4.571,1.226-6.801-0.335V3.981H194.371z"/>
					</g>
					<g>
						<path style="fill:#D8804E;" d="M194.371,3.981v134.014c0,0-0.892-1.115-3.679,0c-2.787,1.115-4.794,1.004-7.135,0
							c-2.341-1.003-4.683-0.781-5.686,0.223c-1.003,1.003-4.571,1.226-6.801-0.335V3.981H194.371z"/>
					</g>
					<g>
						<path style="fill:#C0C5C4;" d="M192.477,137.523c-0.482,0.049-1.07,0.187-1.785,0.473c-0.503,0.201-0.979,0.361-1.438,0.484
							l0.94-129.251L192.477,137.523z"/>
						<path style="fill:#C0C5C4;" d="M181.549,137.424c-1.288-0.19-2.447-0.015-3.216,0.442l0.935-127.753L181.549,137.424z"/>
					</g>
					<g>
						<path style="fill:#8C8E90;" d="M191.155,8.413L191.155,8.413c0.159,0,0.29-0.13,0.29-0.289V4.689c0-0.159-0.13-0.29-0.29-0.29
							l0,0c-0.159,0-0.29,0.13-0.29,0.29v3.435C190.866,8.283,190.996,8.413,191.155,8.413z"/>
						<path style="fill:#8C8E90;" d="M187.709,8.413L187.709,8.413c0.159,0,0.289-0.13,0.289-0.289V4.689
							c0-0.159-0.13-0.29-0.289-0.29l0,0c-0.159,0-0.29,0.13-0.29,0.29v3.435C187.419,8.283,187.55,8.413,187.709,8.413z"/>
						<path style="fill:#8C8E90;" d="M184.262,8.413L184.262,8.413c0.159,0,0.289-0.13,0.289-0.289V4.689
							c0-0.159-0.13-0.29-0.289-0.29l0,0c-0.159,0-0.29,0.13-0.29,0.29v3.435C183.973,8.283,184.103,8.413,184.262,8.413z"/>
						<path style="fill:#8C8E90;" d="M180.816,8.413L180.816,8.413c0.159,0,0.29-0.13,0.29-0.289V4.689c0-0.159-0.13-0.29-0.29-0.29
							l0,0c-0.159,0-0.289,0.13-0.289,0.29v3.435C180.527,8.283,180.657,8.413,180.816,8.413z"/>
						<path style="fill:#8C8E90;" d="M177.37,8.413L177.37,8.413c0.159,0,0.29-0.13,0.29-0.289V4.689c0-0.159-0.13-0.29-0.29-0.29
							l0,0c-0.159,0-0.29,0.13-0.29,0.29v3.435C177.08,8.283,177.21,8.413,177.37,8.413z"/>
						<path style="fill:#8C8E90;" d="M173.923,8.413L173.923,8.413c0.159,0,0.289-0.13,0.289-0.289V4.689
							c0-0.159-0.13-0.29-0.289-0.29l0,0c-0.159,0-0.29,0.13-0.29,0.29v3.435C173.634,8.283,173.764,8.413,173.923,8.413z"/>
					</g>
				</g>
			</g>
		</g>
	</g>
	<g>
		<g>
			<g>
				<path style="fill:#9C4E42;" d="M78.35,197.715c-1.92-7.494,3.886-10.953,3.886-10.953s-10.321-0.051-15.819-0.077l0-0.016
					c-0.058,0-0.689,0.003-1.677,0.007c-0.988-0.005-1.619-0.007-1.677-0.007l-0.001,0.016c-5.498,0.026-15.819,0.077-15.819,0.077
					s5.806,3.46,3.886,10.953c-1.92,7.494-10.113,10.324-8.515,28.975c1.599,18.651,12.756,26.144,12.756,26.144h0.049
					c0,0.307,3.923,0.555,8.762,0.555c0.188,0,0.373-0.001,0.558-0.002c0.185,0.001,0.37,0.002,0.558,0.002
					c4.839,0,8.762-0.249,8.762-0.555h0.049c0,0,11.157-7.493,12.756-26.144C88.463,208.039,80.27,205.208,78.35,197.715z"/>
				<path style="fill:#B2B6B6;" d="M82.291,186.669c0,0.613-7.846,1.11-17.524,1.11c-9.678,0-17.524-0.497-17.524-1.11
					c0-0.613,7.846-1.111,17.524-1.111C74.445,185.558,82.291,186.055,82.291,186.669z"/>
				<g>
					<polygon style="fill:#B29E7A;" points="55.57,240.7 54.116,240.7 54.419,239.518 55.126,239.435 					"/>
					<polygon style="fill:#AFA0AB;" points="60.244,245.761 60.059,245.311 60.463,245.254 60.579,245.462 					"/>
					<polygon style="fill:#C1A280;" points="51.302,246.014 51.028,245.348 51.627,245.264 51.799,245.572 					"/>
					<polygon style="fill:#ADC1BD;" points="61.327,238.226 60.941,237.29 61.782,237.172 62.023,237.605 					"/>
					<polygon style="fill:#EBE9A2;" points="56.137,250.192 55.752,249.256 56.592,249.138 56.833,249.572 					"/>
				</g>
				<g>
					<polygon style="fill:#B29E7A;" points="72.134,245.349 73.244,244.41 73.776,245.507 73.29,246.028 					"/>
					<polygon style="fill:#AFA0AB;" points="65.297,244.507 65.729,244.731 65.457,245.035 65.234,244.951 					"/>
					<polygon style="fill:#C1A280;" points="71.957,238.536 72.597,238.867 72.195,239.318 71.864,239.194 					"/>
					<polygon style="fill:#ADC1BD;" points="69.339,250.957 70.238,251.423 69.673,252.056 69.209,251.881 					"/>
					<polygon style="fill:#EBE9A2;" points="65.568,238.471 66.467,238.936 65.901,239.57 65.437,239.395 					"/>
				</g>
				<g>
					<polygon style="fill:#ADC1BD;" points="82.414,234.394 83.524,233.454 84.056,234.552 83.57,235.072 					"/>
					<polygon style="fill:#AFA0AB;" points="75.577,233.551 76.009,233.775 75.737,234.08 75.514,233.995 					"/>
					<polygon style="fill:#C1A280;" points="82.237,227.58 82.878,227.912 82.475,228.363 82.144,228.238 					"/>
					<polygon style="fill:#DBCA74;" points="79.619,240.002 80.518,240.467 79.953,241.1 79.489,240.925 					"/>
					<polygon style="fill:#EBE9A2;" points="75.848,227.516 76.747,227.981 76.182,228.614 75.717,228.439 					"/>
				</g>
				<g>
					<polygon style="fill:#ADC1BD;" points="52.474,230.465 53.584,229.525 54.116,230.623 53.629,231.144 					"/>
					<polygon style="fill:#AFA0AB;" points="45.636,229.623 46.068,229.846 45.797,230.151 45.573,230.067 					"/>
					<polygon style="fill:#C1A280;" points="52.297,223.652 52.937,223.983 52.534,224.434 52.204,224.309 					"/>
					<polygon style="fill:#DBCA74;" points="49.679,236.073 50.578,236.538 50.013,237.172 49.549,236.997 					"/>
					<polygon style="fill:#EBE9A2;" points="45.908,223.587 46.807,224.052 46.241,224.686 45.777,224.511 					"/>
				</g>
				<g>
					<polygon style="fill:#84B5BC;" points="53.198,211.575 54.65,211.501 54.408,212.696 53.705,212.815 					"/>
					<polygon style="fill:#AFA0AB;" points="48.272,206.759 48.48,207.199 48.079,207.276 47.952,207.074 					"/>
					<polygon style="fill:#C1A280;" points="57.189,206.05 57.497,206.701 56.903,206.816 56.716,206.516 					"/>
					<polygon style="fill:#DBCA74;" points="47.575,214.339 48.007,215.254 47.174,215.415 46.911,214.995 					"/>
					<polygon style="fill:#EBE9A2;" points="52.148,202.124 52.58,203.039 51.746,203.2 51.484,202.779 					"/>
				</g>
				<g>
					<polygon style="fill:#84B5BC;" points="70.574,204.65 69.493,205.623 68.928,204.542 69.398,204.006 					"/>
					<polygon style="fill:#AFA0AB;" points="77.434,205.285 76.995,205.074 77.257,204.761 77.483,204.839 					"/>
					<polygon style="fill:#C1A280;" points="70.957,211.455 70.307,211.143 70.696,210.68 71.03,210.794 					"/>
					<polygon style="fill:#DBCA74;" points="73.197,198.96 72.285,198.522 72.831,197.872 73.3,198.032 					"/>
					<polygon style="fill:#EBE9A2;" points="77.345,211.326 76.433,210.888 76.979,210.238 77.448,210.398 					"/>
				</g>
				<g>
					<polygon style="fill:#84B5BC;" points="64.65,197.71 65.664,196.668 66.299,197.709 65.866,198.275 					"/>
					<polygon style="fill:#AFA0AB;" points="57.763,197.532 58.215,197.713 57.973,198.042 57.743,197.98 					"/>
					<polygon style="fill:#C1A280;" points="63.816,190.946 64.485,191.214 64.128,191.702 63.787,191.61 					"/>
					<polygon style="fill:#DBCA74;" points="62.409,203.562 63.349,203.938 62.847,204.623 62.368,204.494 					"/>
					<polygon style="fill:#EBE9A2;" points="57.451,191.498 58.39,191.874 57.888,192.56 57.41,192.43 					"/>
				</g>
				<g>
					<polygon style="fill:#84B5BC;" points="66.228,226.84 67.68,226.766 67.438,227.961 66.735,228.08 					"/>
					<polygon style="fill:#AFA0AB;" points="61.301,222.024 61.509,222.464 61.109,222.541 60.982,222.339 					"/>
					<polygon style="fill:#C1A280;" points="70.219,221.315 70.527,221.966 69.933,222.081 69.746,221.781 					"/>
					<polygon style="fill:#DBCA74;" points="60.605,229.604 61.037,230.519 60.204,230.68 59.941,230.26 					"/>
					<polygon style="fill:#EBE9A2;" points="65.177,217.389 65.61,218.304 64.776,218.465 64.513,218.044 					"/>
				</g>
				<g>
					<polygon style="fill:#ADC1BD;" points="76.584,221.294 76.677,222.745 75.479,222.518 75.35,221.817 					"/>
					<polygon style="fill:#AFA0AB;" points="81.335,216.305 80.898,216.518 80.815,216.118 81.016,215.99 					"/>
					<polygon style="fill:#C1A280;" points="82.161,225.212 81.513,225.528 81.391,224.936 81.688,224.745 					"/>
					<polygon style="fill:#DBCA74;" points="73.746,215.707 72.837,216.152 72.665,215.321 73.082,215.052 					"/>
					<polygon style="fill:#EBE9A2;" points="86.02,220.119 85.111,220.564 84.939,219.732 85.356,219.464 					"/>
				</g>
			</g>
			<g>
				<g>
					<path style="fill:#78A067;" d="M70.496,111.963c-0.681-0.662-1.183-1.469-1.565-2.335c-0.091-0.256-0.175-0.513-0.256-0.766
						c-0.602-1.881-0.71-3.968-0.221-5.92c0.277-1.105,0.746-2.143,1.397-3.092c0.077-0.112,0.196-0.115,0.296-0.03
						c1.458,1.229,2.282,3.188,2.755,4.997c0.511,1.953,0.571,3.958,0.164,5.958c-0.232,0.787-0.567,1.547-1.011,2.24
						C71.479,112.759,70.953,112.408,70.496,111.963z"/>
					<path style="fill:#5B895D;" d="M67.826,119.071c-0.681-0.662-1.183-1.469-1.565-2.335c-0.091-0.256-0.175-0.513-0.256-0.766
						c-0.602-1.881-0.71-3.968-0.221-5.92c0.277-1.105,0.746-2.143,1.397-3.092c0.077-0.112,0.196-0.115,0.296-0.03
						c1.458,1.229,2.282,3.188,2.755,4.997c0.511,1.953,0.571,3.958,0.164,5.958c-0.232,0.787-0.567,1.547-1.011,2.24
						C68.809,119.867,68.283,119.516,67.826,119.071z"/>
					<path style="fill:#78A067;" d="M65.611,125.654c-0.799-0.513-1.451-1.204-1.999-1.977c-0.14-0.233-0.274-0.468-0.403-0.7
						c-0.964-1.724-1.486-3.747-1.394-5.757c0.052-1.138,0.304-2.249,0.754-3.308c0.053-0.125,0.169-0.151,0.284-0.089
						c1.673,0.914,2.87,2.67,3.694,4.349c0.889,1.812,1.347,3.765,1.346,5.806c-0.071,0.817-0.248,1.629-0.545,2.396
						C66.733,126.239,66.147,125.999,65.611,125.654z"/>
					<path style="fill:#5B895D;" d="M64.048,132.191c-0.877-0.364-1.642-0.928-2.317-1.592c-0.179-0.204-0.352-0.412-0.521-0.617
						c-1.255-1.526-2.126-3.425-2.392-5.419c-0.151-1.129-0.099-2.267,0.156-3.389c0.03-0.133,0.139-0.179,0.264-0.138
						c1.809,0.603,3.298,2.12,4.406,3.626c1.196,1.626,1.993,3.467,2.354,5.476c0.075,0.817,0.044,1.647-0.112,2.455
						C65.256,132.567,64.637,132.435,64.048,132.191z"/>
					<path style="fill:#78A067;" d="M62.899,140.571c-1.042-0.41-1.954-1.037-2.762-1.771c-0.214-0.226-0.422-0.455-0.625-0.682
						c-1.504-1.685-2.561-3.773-2.903-5.957c-0.194-1.236-0.148-2.48,0.138-3.703c0.034-0.145,0.162-0.194,0.31-0.147
						c2.147,0.684,3.929,2.362,5.26,4.024c1.436,1.793,2.403,3.817,2.858,6.018c0.1,0.894,0.075,1.801-0.099,2.682
						C64.332,140.999,63.598,140.846,62.899,140.571z"/>
					<path style="fill:#5B895D;" d="M62.244,147.625c-1.011-0.266-1.93-0.768-2.766-1.392c-0.226-0.197-0.446-0.397-0.661-0.596
						c-1.596-1.478-2.831-3.421-3.418-5.558c-0.333-1.21-0.445-2.459-0.335-3.722c0.013-0.15,0.125-0.216,0.268-0.189
						c2.064,0.389,3.915,1.822,5.349,3.3c1.548,1.596,2.691,3.487,3.385,5.625c0.203,0.881,0.294,1.791,0.244,2.696
						C63.618,147.856,62.923,147.803,62.244,147.625z"/>
					<path style="fill:#8AB676;" d="M61.522,154.764c-1.011-0.266-1.93-0.768-2.766-1.392c-0.226-0.197-0.446-0.397-0.661-0.596
						c-1.596-1.478-2.83-3.421-3.418-5.558c-0.333-1.21-0.445-2.459-0.335-3.722c0.013-0.15,0.125-0.216,0.267-0.189
						c2.064,0.389,3.915,1.822,5.349,3.301c1.548,1.596,2.691,3.487,3.385,5.625c0.203,0.881,0.294,1.791,0.244,2.696
						C62.896,154.995,62.201,154.943,61.522,154.764z"/>
					<path style="fill:#5B895D;" d="M61.93,162.25c-1.038-0.123-2.018-0.492-2.933-0.993c-0.251-0.163-0.497-0.331-0.737-0.498
						c-1.787-1.241-3.279-2.993-4.159-5.028c-0.498-1.152-0.784-2.373-0.85-3.639c-0.008-0.15,0.094-0.232,0.238-0.225
						c2.098,0.097,4.131,1.259,5.757,2.523c1.755,1.365,3.151,3.078,4.135,5.099c0.324,0.844,0.541,1.732,0.617,2.635
						C63.323,162.287,62.627,162.332,61.93,162.25z"/>
					<path style="fill:#8AB676;" d="M61.596,168.795c-1.038-0.123-2.018-0.492-2.933-0.993c-0.251-0.163-0.497-0.331-0.737-0.498
						c-1.787-1.241-3.279-2.993-4.159-5.028c-0.498-1.152-0.784-2.373-0.85-3.639c-0.008-0.15,0.094-0.231,0.238-0.225
						c2.098,0.097,4.131,1.258,5.757,2.523c1.755,1.365,3.151,3.078,4.135,5.099c0.324,0.844,0.541,1.732,0.617,2.635
						C62.989,168.832,62.293,168.878,61.596,168.795z"/>
					<path style="fill:#5B895D;" d="M62.636,177.892c-1.078-0.144-2.097-0.558-3.05-1.118c-0.262-0.182-0.518-0.369-0.769-0.555
						c-1.863-1.382-3.426-3.323-4.355-5.571c-0.526-1.272-0.833-2.62-0.912-4.014c-0.009-0.165,0.096-0.254,0.245-0.246
						c2.176,0.125,4.294,1.42,5.99,2.827c1.831,1.518,3.293,3.415,4.331,5.649c0.343,0.932,0.575,1.912,0.662,2.907
						C64.081,177.945,63.36,177.988,62.636,177.892z"/>
					<path style="fill:#446B47;" d="M79.238,102.433c-3.879,4.044-6.781,8.805-8.927,13.966c-2.216,5.331-3.652,10.966-4.681,16.637
						c-1.005,5.537-1.63,11.139-2.105,16.745c-0.615,7.248-0.597,14.546-0.021,21.796c0.431,5.417,1.167,10.816,2.213,16.151
						c0.279,0.026,0.558,0.046,0.836,0.073c-0.197-0.962-0.387-1.926-0.558-2.894c-0.629-3.555-1.129-7.133-1.491-10.725
						c-0.726-7.204-0.897-14.466-0.45-21.693c0.355-5.737,0.966-11.489,1.868-17.167c0.899-5.657,2.156-11.273,4.096-16.67
						c1.877-5.222,4.455-10.32,8.033-14.592c0.429-0.513,0.883-1.006,1.344-1.49C79.521,102.439,79.361,102.304,79.238,102.433z"/>
					<path style="fill:#8AB676;" d="M66.767,176.459c1.411-0.203,2.739-0.729,3.978-1.428c0.339-0.226,0.672-0.458,0.997-0.688
						c2.416-1.712,4.427-4.089,5.601-6.816c0.664-1.543,1.04-3.171,1.116-4.85c0.009-0.199-0.13-0.303-0.327-0.289
						c-2.853,0.21-5.605,1.826-7.802,3.563c-2.371,1.874-4.251,4.196-5.568,6.908c-0.432,1.13-0.716,2.314-0.81,3.512
						C64.873,176.562,65.82,176.595,66.767,176.459z"/>
					<path style="fill:#5B895D;" d="M66.258,168.031c1.425,0.023,2.82-0.287,4.154-0.781c0.371-0.169,0.736-0.345,1.093-0.521
						c2.657-1.309,5.018-3.338,6.608-5.845c0.9-1.419,1.528-2.967,1.868-4.612c0.04-0.195-0.081-0.32-0.277-0.337
						c-2.85-0.243-5.823,0.917-8.267,2.285c-2.638,1.476-4.861,3.471-6.59,5.942c-0.605,1.047-1.073,2.172-1.355,3.34
						C64.372,167.834,65.301,168.016,66.258,168.031z"/>
					<path style="fill:#8AB676;" d="M65.868,159.92c1.222,0.102,2.431-0.092,3.596-0.452c0.325-0.128,0.646-0.263,0.96-0.398
						c2.334-1.004,4.444-2.66,5.913-4.783c0.831-1.202,1.435-2.533,1.795-3.966c0.043-0.17-0.056-0.287-0.224-0.313
						c-2.435-0.379-5.033,0.476-7.187,1.544c-2.325,1.152-4.315,2.787-5.901,4.87c-0.562,0.89-1.011,1.857-1.302,2.872
						C64.258,159.638,65.048,159.852,65.868,159.92z"/>
					<path style="fill:#5B895D;" d="M66.24,153.902c1.222-0.061,2.394-0.414,3.502-0.927c0.306-0.171,0.606-0.347,0.9-0.523
						c2.184-1.307,4.064-3.234,5.252-5.539c0.672-1.305,1.103-2.708,1.28-4.18c0.021-0.174-0.091-0.278-0.26-0.281
						c-2.457-0.052-4.921,1.142-6.919,2.49c-2.156,1.454-3.921,3.343-5.23,5.624c-0.445,0.959-0.768,1.979-0.929,3.027
						C64.611,153.835,65.42,153.943,66.24,153.902z"/>
					<path style="fill:#8AB676;" d="M66.626,146.551c1.222-0.061,2.394-0.414,3.502-0.927c0.306-0.171,0.606-0.347,0.9-0.523
						c2.184-1.307,4.064-3.234,5.252-5.539c0.672-1.305,1.103-2.708,1.28-4.18c0.021-0.174-0.091-0.278-0.26-0.281
						c-2.457-0.052-4.921,1.142-6.919,2.49c-2.156,1.454-3.921,3.343-5.23,5.624c-0.445,0.959-0.768,1.979-0.929,3.027
						C64.997,146.485,65.806,146.592,66.626,146.551z"/>
					<path style="fill:#5B895D;" d="M67.66,139.024c1.222-0.061,2.394-0.414,3.502-0.927c0.306-0.171,0.606-0.347,0.9-0.523
						c2.183-1.307,4.064-3.234,5.252-5.539c0.672-1.305,1.103-2.708,1.28-4.18c0.021-0.174-0.091-0.278-0.26-0.281
						c-2.457-0.052-4.921,1.142-6.919,2.49c-2.156,1.454-3.921,3.343-5.23,5.624c-0.445,0.959-0.768,1.979-0.929,3.027
						C66.032,138.958,66.84,139.066,67.66,139.024z"/>
					<path style="fill:#8AB676;" d="M68.518,133.372c1.222-0.061,2.394-0.414,3.502-0.927c0.306-0.171,0.606-0.347,0.9-0.523
						c2.184-1.307,4.064-3.234,5.252-5.539c0.672-1.305,1.103-2.708,1.28-4.18c0.021-0.174-0.091-0.278-0.26-0.281
						c-2.457-0.052-4.921,1.142-6.919,2.49c-2.156,1.455-3.921,3.343-5.23,5.624c-0.445,0.959-0.768,1.979-0.929,3.027
						C66.889,133.305,67.698,133.413,68.518,133.372z"/>
					<path style="fill:#5B895D;" d="M69.783,127.157c1.222-0.061,2.394-0.414,3.502-0.927c0.306-0.171,0.606-0.347,0.9-0.523
						c2.184-1.307,4.064-3.234,5.252-5.539c0.672-1.305,1.103-2.708,1.28-4.18c0.021-0.175-0.091-0.278-0.261-0.281
						c-2.457-0.052-4.921,1.142-6.918,2.49c-2.156,1.454-3.921,3.343-5.23,5.624c-0.445,0.959-0.768,1.979-0.929,3.027
						C68.155,127.091,68.963,127.198,69.783,127.157z"/>
					<path style="fill:#8AB676;" d="M75.462,109.492c0.892-0.598,1.615-1.391,2.217-2.273c0.153-0.265,0.3-0.532,0.441-0.796
						c1.054-1.96,1.6-4.244,1.455-6.497c-0.082-1.275-0.391-2.514-0.921-3.69c-0.063-0.139-0.194-0.165-0.323-0.092
						c-1.872,1.072-3.188,3.075-4.084,4.981c-0.967,2.057-1.443,4.261-1.4,6.55c0.097,0.915,0.314,1.82,0.666,2.673
						C74.207,110.179,74.864,109.894,75.462,109.492z"/>
					<path style="fill:#5B895D;" d="M74.516,112.493c0.948-0.048,1.858-0.322,2.718-0.719c0.237-0.132,0.47-0.269,0.698-0.406
						c1.695-1.015,3.154-2.51,4.076-4.299c0.522-1.013,0.856-2.102,0.993-3.244c0.016-0.135-0.071-0.215-0.202-0.218
						c-1.907-0.041-3.819,0.886-5.369,1.932c-1.673,1.129-3.043,2.595-4.059,4.365c-0.345,0.744-0.596,1.536-0.721,2.349
						C73.252,112.441,73.88,112.525,74.516,112.493z"/>
					<path style="fill:#8AB676;" d="M72.001,120.166c1.222-0.061,2.394-0.414,3.502-0.927c0.306-0.171,0.606-0.347,0.9-0.523
						c2.184-1.308,4.064-3.234,5.252-5.539c0.672-1.305,1.103-2.708,1.28-4.18c0.021-0.174-0.092-0.278-0.261-0.281
						c-2.457-0.052-4.921,1.142-6.918,2.49c-2.156,1.454-3.921,3.343-5.23,5.624c-0.445,0.959-0.768,1.979-0.929,3.027
						C70.373,120.1,71.182,120.207,72.001,120.166z"/>
				</g>
				<g>
					<path style="fill:#78A067;" d="M90.41,134.098c-0.372-0.604-0.589-1.281-0.708-1.979c-0.019-0.202-0.033-0.404-0.046-0.602
						c-0.092-1.474,0.211-3.007,0.923-4.332c0.403-0.75,0.932-1.417,1.578-1.986c0.076-0.067,0.163-0.048,0.22,0.032
						c0.832,1.158,1.071,2.729,1.083,4.127c0.013,1.509-0.31,2.974-0.97,4.349c-0.312,0.528-0.694,1.018-1.142,1.439
						C90.977,134.855,90.66,134.504,90.41,134.098z"/>
					<path style="fill:#5B895D;" d="M87.174,138.763c-0.372-0.604-0.589-1.281-0.708-1.979c-0.019-0.202-0.033-0.404-0.046-0.602
						c-0.093-1.474,0.211-3.007,0.922-4.332c0.403-0.75,0.933-1.417,1.578-1.986c0.077-0.067,0.163-0.048,0.22,0.032
						c0.833,1.158,1.071,2.729,1.084,4.127c0.013,1.509-0.31,2.974-0.97,4.349c-0.312,0.528-0.694,1.018-1.142,1.439
						C87.741,139.52,87.424,139.169,87.174,138.763z"/>
					<path style="fill:#78A067;" d="M84.365,143.13c-0.485-0.518-0.832-1.138-1.087-1.799c-0.059-0.194-0.113-0.389-0.165-0.581
						c-0.384-1.426-0.392-2.988,0.042-4.429c0.246-0.815,0.632-1.575,1.152-2.26c0.062-0.081,0.15-0.079,0.222-0.012
						c1.046,0.969,1.593,2.461,1.883,3.829c0.313,1.476,0.288,2.976-0.086,4.455c-0.201,0.58-0.478,1.135-0.833,1.637
						C85.071,143.759,84.69,143.478,84.365,143.13z"/>
					<path style="fill:#5B895D;" d="M82.036,147.584c-0.569-0.424-1.021-0.973-1.389-1.578c-0.092-0.181-0.18-0.363-0.265-0.543
						c-0.631-1.335-0.915-2.872-0.743-4.366c0.097-0.846,0.343-1.662,0.733-2.429c0.046-0.091,0.134-0.104,0.217-0.051
						c1.201,0.768,2.004,2.14,2.532,3.434c0.57,1.397,0.811,2.878,0.705,4.4c-0.095,0.606-0.269,1.202-0.53,1.759
						C82.843,148.077,82.419,147.868,82.036,147.584z"/>
					<path style="fill:#78A067;" d="M79.671,153.449c-0.68-0.488-1.227-1.109-1.678-1.789c-0.114-0.203-0.223-0.407-0.328-0.609
						c-0.782-1.497-1.166-3.203-1.015-4.849c0.086-0.932,0.346-1.825,0.777-2.659c0.051-0.099,0.153-0.111,0.252-0.05
						c1.432,0.888,2.417,2.431,3.078,3.879c0.713,1.563,1.044,3.207,0.972,4.885c-0.091,0.667-0.275,1.32-0.562,1.926
						C80.631,154.021,80.128,153.776,79.671,153.449z"/>
					<path style="fill:#5B895D;" d="M77.906,158.443c-0.684-0.378-1.259-0.91-1.751-1.515c-0.128-0.184-0.251-0.369-0.37-0.553
						c-0.887-1.364-1.427-2.998-1.462-4.654c-0.02-0.938,0.127-1.864,0.438-2.76c0.037-0.106,0.13-0.134,0.229-0.089
						c1.425,0.659,2.505,2.037,3.274,3.371c0.83,1.44,1.313,3.02,1.425,4.697c-0.013,0.676-0.114,1.352-0.316,1.999
						C78.86,158.862,78.366,158.697,77.906,158.443z"/>
					<path style="fill:#8AB676;" d="M76.078,163.487c-0.684-0.378-1.259-0.91-1.751-1.515c-0.128-0.184-0.25-0.369-0.37-0.553
						c-0.887-1.364-1.427-2.997-1.462-4.655c-0.02-0.938,0.127-1.864,0.438-2.76c0.037-0.106,0.13-0.134,0.228-0.089
						c1.425,0.659,2.505,2.037,3.275,3.371c0.83,1.44,1.313,3.02,1.425,4.697c-0.014,0.676-0.114,1.352-0.316,1.999
						C77.032,163.906,76.537,163.741,76.078,163.487z"/>
					<path style="fill:#5B895D;" d="M75.005,168.989c-0.73-0.279-1.373-0.726-1.945-1.256c-0.152-0.164-0.3-0.331-0.443-0.496
						c-1.068-1.227-1.83-2.77-2.096-4.406c-0.15-0.926-0.134-1.864,0.049-2.794c0.022-0.11,0.111-0.151,0.214-0.119
						c1.503,0.454,2.765,1.668,3.712,2.882c1.022,1.31,1.721,2.807,2.065,4.453c0.081,0.671,0.075,1.355-0.035,2.023
						C76.008,169.27,75.495,169.176,75.005,168.989z"/>
					<path style="fill:#8AB676;" d="M73.566,173.673c-0.73-0.279-1.373-0.726-1.945-1.256c-0.152-0.164-0.299-0.331-0.443-0.496
						c-1.068-1.227-1.83-2.77-2.096-4.405c-0.15-0.926-0.134-1.864,0.049-2.794c0.022-0.11,0.111-0.151,0.214-0.12
						c1.503,0.454,2.765,1.668,3.712,2.882c1.023,1.311,1.721,2.808,2.066,4.453c0.081,0.671,0.075,1.355-0.035,2.023
						C74.568,173.954,74.056,173.86,73.566,173.673z"/>
					<path style="fill:#5B895D;" d="M72.657,180.458c-0.755-0.301-1.418-0.788-2.007-1.368c-0.156-0.18-0.308-0.362-0.456-0.543
						c-1.098-1.342-1.876-3.036-2.138-4.835c-0.149-1.018-0.125-2.052,0.073-3.077c0.023-0.122,0.116-0.167,0.223-0.133
						c1.555,0.488,2.853,1.815,3.826,3.145c1.05,1.435,1.763,3.078,2.107,4.887c0.078,0.738,0.067,1.491-0.052,2.229
						C73.694,180.76,73.163,180.66,72.657,180.458z"/>
					<path style="fill:#446B47;" d="M98.49,128.787c-3.552,2.223-6.526,5.144-9.026,8.493c-2.582,3.46-4.653,7.283-6.436,11.206
						c-1.741,3.831-3.218,7.778-4.588,11.755c-1.771,5.142-3.092,10.436-4,15.798c-0.645,3.81-1.083,7.659-1.312,11.519
						c0.002,0,0.004,0.001,0.006,0.001c-0.005-0.001-0.004,0-0.006-0.001l0,0c0.004,0,0.005,0.001,0.014,0.002
						c0.107,0.012,0.213,0.016,0.321,0.02c0.088,0.003,0.175,0.007,0.263,0.013c0.025-0.478,0.049-0.956,0.083-1.434
						c0.194-2.692,0.486-5.378,0.881-8.048c0.791-5.356,1.995-10.651,3.64-15.81c1.306-4.095,2.801-8.153,4.493-12.104
						c1.686-3.937,3.625-7.779,6.018-11.337c2.315-3.442,5.117-6.667,8.492-9.11c0.405-0.293,0.824-0.568,1.247-0.835
						C98.694,128.844,98.603,128.717,98.49,128.787z"/>
					<path style="fill:#8AB676;" d="M75.913,180.174c1.06,0.111,2.119-0.027,3.145-0.308c0.287-0.102,0.571-0.209,0.849-0.316
						c2.065-0.799,3.957-2.155,5.307-3.917c0.764-0.997,1.334-2.109,1.696-3.312c0.043-0.143-0.039-0.243-0.184-0.269
						c-2.107-0.369-4.397,0.299-6.308,1.156c-2.062,0.925-3.849,2.265-5.3,3.99c-0.519,0.74-0.942,1.547-1.229,2.398
						C74.521,179.903,75.202,180.1,75.913,180.174z"/>
					<path style="fill:#5B895D;" d="M77.085,173.971c1.029,0.277,2.097,0.307,3.154,0.193c0.3-0.055,0.597-0.116,0.888-0.178
						c2.165-0.463,4.248-1.502,5.859-3.029c0.912-0.864,1.65-1.872,2.198-3.002c0.065-0.134,0-0.247-0.139-0.294
						c-2.022-0.698-4.389-0.4-6.411,0.145c-2.182,0.588-4.159,1.628-5.864,3.103c-0.63,0.649-1.175,1.378-1.593,2.174
						C75.754,173.483,76.395,173.785,77.085,173.971z"/>
					<path style="fill:#8AB676;" d="M78.285,168.02c0.867,0.297,1.779,0.378,2.69,0.33c0.259-0.034,0.516-0.073,0.768-0.113
						c1.875-0.301,3.708-1.116,5.161-2.386c0.823-0.719,1.503-1.574,2.027-2.547c0.062-0.115,0.012-0.218-0.105-0.268
						c-1.696-0.72-3.736-0.575-5.493-0.195c-1.896,0.411-3.638,1.232-5.169,2.451c-0.57,0.542-1.072,1.161-1.469,1.844
						C77.17,167.521,77.703,167.82,78.285,168.02z"/>
					<path style="fill:#5B895D;" d="M79.656,163.724c0.897,0.179,1.812,0.137,2.708-0.032c0.253-0.068,0.503-0.141,0.748-0.215
						c1.822-0.549,3.538-1.602,4.82-3.055c0.726-0.823,1.295-1.762,1.692-2.797c0.047-0.123-0.016-0.218-0.138-0.252
						c-1.771-0.487-3.776-0.072-5.471,0.54c-1.829,0.66-3.454,1.707-4.82,3.121c-0.498,0.614-0.919,1.295-1.227,2.025
						C78.487,163.378,79.053,163.604,79.656,163.724z"/>
					<path style="fill:#8AB676;" d="M81.279,158.466c0.897,0.179,1.811,0.137,2.708-0.032c0.253-0.068,0.503-0.141,0.748-0.215
						c1.822-0.549,3.538-1.602,4.82-3.055c0.726-0.823,1.295-1.762,1.692-2.797c0.047-0.123-0.015-0.218-0.137-0.252
						c-1.771-0.487-3.776-0.072-5.471,0.54c-1.829,0.66-3.454,1.707-4.82,3.121c-0.498,0.614-0.919,1.294-1.227,2.025
						C80.111,158.12,80.677,158.346,81.279,158.466z"/>
					<path style="fill:#5B895D;" d="M83.406,153.198c0.897,0.179,1.812,0.138,2.708-0.032c0.253-0.068,0.503-0.141,0.748-0.215
						c1.822-0.549,3.538-1.601,4.82-3.055c0.726-0.823,1.294-1.762,1.692-2.797c0.047-0.123-0.016-0.218-0.137-0.252
						c-1.771-0.487-3.776-0.072-5.471,0.54c-1.829,0.66-3.454,1.707-4.82,3.121c-0.498,0.614-0.919,1.294-1.227,2.025
						C82.237,152.852,82.804,153.078,83.406,153.198z"/>
					<path style="fill:#8AB676;" d="M85.061,149.257c0.897,0.179,1.812,0.138,2.708-0.032c0.253-0.068,0.503-0.141,0.748-0.215
						c1.822-0.549,3.538-1.602,4.82-3.055c0.726-0.823,1.294-1.762,1.692-2.797c0.047-0.123-0.016-0.218-0.137-0.252
						c-1.771-0.487-3.776-0.072-5.471,0.54c-1.829,0.66-3.454,1.707-4.82,3.121c-0.498,0.614-0.919,1.294-1.227,2.025
						C83.893,148.911,84.459,149.137,85.061,149.257z"/>
					<path style="fill:#5B895D;" d="M87.115,144.983c0.897,0.179,1.812,0.137,2.708-0.032c0.253-0.068,0.503-0.141,0.748-0.215
						c1.822-0.549,3.538-1.601,4.82-3.055c0.726-0.823,1.294-1.762,1.692-2.797c0.047-0.123-0.016-0.218-0.138-0.252
						c-1.771-0.487-3.776-0.072-5.471,0.54c-1.829,0.66-3.454,1.707-4.82,3.121c-0.498,0.614-0.919,1.294-1.227,2.025
						C85.946,144.637,86.513,144.863,87.115,144.983z"/>
					<path style="fill:#8AB676;" d="M94.462,133.215c0.756-0.271,1.425-0.713,2.023-1.242c0.16-0.164,0.315-0.331,0.466-0.496
						c1.122-1.228,1.936-2.784,2.243-4.444c0.174-0.939,0.176-1.894,0.007-2.844c-0.02-0.113-0.11-0.155-0.217-0.125
						c-1.553,0.435-2.873,1.646-3.871,2.864c-1.077,1.315-1.826,2.825-2.213,4.492c-0.097,0.681-0.105,1.377-0.006,2.06
						C93.426,133.483,93.955,133.396,94.462,133.215z"/>
					<path style="fill:#5B895D;" d="M93.227,135.217c0.696,0.139,1.406,0.107,2.102-0.025c0.196-0.053,0.39-0.109,0.58-0.167
						c1.414-0.426,2.746-1.243,3.741-2.371c0.563-0.639,1.005-1.367,1.314-2.171c0.037-0.095-0.012-0.169-0.107-0.195
						c-1.375-0.378-2.931-0.056-4.246,0.419c-1.419,0.512-2.68,1.325-3.741,2.422c-0.387,0.477-0.713,1.005-0.952,1.572
						C92.32,134.949,92.76,135.124,93.227,135.217z"/>
					<path style="fill:#8AB676;" d="M90.001,140.32c0.897,0.179,1.812,0.137,2.708-0.032c0.253-0.068,0.503-0.141,0.748-0.215
						c1.822-0.549,3.538-1.602,4.82-3.055c0.726-0.823,1.295-1.762,1.692-2.796c0.047-0.123-0.015-0.218-0.137-0.252
						c-1.771-0.487-3.776-0.072-5.471,0.54c-1.829,0.66-3.454,1.707-4.82,3.121c-0.498,0.614-0.919,1.294-1.227,2.025
						C88.833,139.975,89.399,140.2,90.001,140.32z"/>
				</g>
				<g>
					<path style="fill:#78A067;" d="M36.12,122.129c0.498-0.808,0.787-1.714,0.947-2.647c0.025-0.27,0.044-0.54,0.061-0.805
						c0.124-1.971-0.282-4.021-1.234-5.794c-0.539-1.004-1.247-1.896-2.111-2.656c-0.102-0.09-0.218-0.064-0.295,0.043
						c-1.113,1.548-1.433,3.649-1.449,5.519c-0.018,2.018,0.414,3.977,1.298,5.817c0.418,0.706,0.928,1.361,1.528,1.925
						C35.362,123.141,35.786,122.671,36.12,122.129z"/>
					<path style="fill:#5B895D;" d="M40.448,128.368c0.498-0.808,0.787-1.713,0.947-2.647c0.025-0.27,0.044-0.54,0.061-0.805
						c0.124-1.971-0.282-4.021-1.234-5.794c-0.539-1.003-1.247-1.896-2.111-2.656c-0.102-0.09-0.218-0.064-0.295,0.043
						c-1.113,1.548-1.433,3.649-1.449,5.52c-0.017,2.018,0.415,3.977,1.298,5.817c0.418,0.706,0.928,1.361,1.528,1.925
						C39.689,129.38,40.114,128.911,40.448,128.368z"/>
					<path style="fill:#78A067;" d="M44.205,134.209c0.649-0.693,1.113-1.522,1.454-2.406c0.079-0.26,0.151-0.521,0.22-0.777
						c0.513-1.907,0.524-3.997-0.056-5.924c-0.328-1.091-0.845-2.106-1.54-3.023c-0.082-0.109-0.201-0.106-0.297-0.017
						c-1.399,1.296-2.13,3.291-2.518,5.121c-0.419,1.974-0.385,3.98,0.114,5.959c0.269,0.775,0.639,1.519,1.114,2.19
						C43.26,135.05,43.77,134.674,44.205,134.209z"/>
					<path style="fill:#5B895D;" d="M47.319,140.165c0.761-0.567,1.365-1.301,1.858-2.11c0.124-0.242,0.241-0.485,0.355-0.726
						c0.843-1.786,1.224-3.841,0.994-5.84c-0.13-1.132-0.459-2.222-0.98-3.248c-0.062-0.122-0.179-0.14-0.289-0.069
						c-1.607,1.027-2.68,2.862-3.386,4.593c-0.762,1.869-1.084,3.849-0.943,5.885c0.127,0.811,0.36,1.608,0.708,2.353
						C46.24,140.825,46.808,140.546,47.319,140.165z"/>
					<path style="fill:#78A067;" d="M50.483,148.01c0.91-0.652,1.641-1.483,2.245-2.393c0.153-0.271,0.298-0.544,0.439-0.814
						c1.047-2.002,1.56-4.284,1.358-6.486c-0.115-1.246-0.463-2.44-1.04-3.557c-0.068-0.132-0.205-0.148-0.337-0.067
						c-1.915,1.188-3.232,3.251-4.116,5.188c-0.954,2.09-1.397,4.289-1.3,6.534c0.122,0.892,0.368,1.765,0.752,2.577
						C49.198,148.775,49.872,148.447,50.483,148.01z"/>
					<path style="fill:#5B895D;" d="M52.843,154.689c0.915-0.506,1.683-1.217,2.342-2.026c0.171-0.246,0.335-0.494,0.495-0.739
						c1.186-1.824,1.908-4.009,1.955-6.225c0.027-1.254-0.169-2.494-0.586-3.691c-0.049-0.142-0.174-0.179-0.306-0.118
						c-1.906,0.882-3.351,2.724-4.38,4.508c-1.11,1.926-1.757,4.039-1.906,6.282c0.018,0.904,0.153,1.808,0.423,2.673
						C51.567,155.249,52.229,155.029,52.843,154.689z"/>
					<path style="fill:#8AB676;" d="M55.289,161.435c0.915-0.506,1.684-1.217,2.342-2.026c0.171-0.246,0.335-0.494,0.495-0.739
						c1.186-1.824,1.908-4.009,1.955-6.225c0.027-1.254-0.169-2.494-0.586-3.691c-0.049-0.142-0.174-0.179-0.306-0.118
						c-1.906,0.882-3.351,2.724-4.379,4.509c-1.11,1.926-1.757,4.039-1.906,6.282c0.018,0.904,0.153,1.808,0.423,2.674
						C54.013,161.995,54.674,161.775,55.289,161.435z"/>
					<path style="fill:#5B895D;" d="M56.724,168.793c0.977-0.373,1.836-0.97,2.601-1.68c0.203-0.22,0.401-0.442,0.593-0.663
						c1.429-1.641,2.448-3.704,2.803-5.892c0.201-1.238,0.18-2.493-0.066-3.737c-0.029-0.147-0.148-0.202-0.286-0.16
						c-2.011,0.607-3.698,2.231-4.965,3.855c-1.368,1.753-2.302,3.755-2.763,5.955c-0.108,0.898-0.1,1.812,0.046,2.706
						C55.382,169.17,56.068,169.044,56.724,168.793z"/>
					<path style="fill:#8AB676;" d="M58.649,175.058c0.977-0.373,1.836-0.97,2.601-1.68c0.203-0.219,0.401-0.442,0.593-0.663
						c1.429-1.641,2.448-3.704,2.803-5.892c0.201-1.238,0.18-2.493-0.066-3.737c-0.029-0.147-0.148-0.202-0.286-0.16
						c-2.011,0.608-3.698,2.231-4.965,3.855c-1.368,1.753-2.302,3.755-2.763,5.955c-0.108,0.898-0.101,1.812,0.046,2.706
						C57.308,175.435,57.993,175.309,58.649,175.058z"/>
					<path style="fill:#5B895D;" d="M59.864,184.133c1.01-0.403,1.896-1.054,2.684-1.83c0.209-0.24,0.412-0.484,0.61-0.726
						c1.469-1.796,2.509-4.06,2.86-6.467c0.199-1.362,0.167-2.744-0.097-4.115c-0.031-0.163-0.155-0.223-0.298-0.178
						c-2.08,0.653-3.816,2.427-5.117,4.206c-1.404,1.919-2.358,4.117-2.818,6.536c-0.105,0.987-0.09,1.995,0.069,2.981
						C58.477,184.538,59.187,184.404,59.864,184.133z"/>
					<path style="fill:#446B47;" d="M58.76,187.754c-0.323-3.191-0.748-6.372-1.283-9.532c-1.214-7.171-2.981-14.252-5.35-21.129
						c-1.832-5.319-3.808-10.598-6.136-15.721c-2.384-5.247-5.154-10.36-8.607-14.987c-3.343-4.479-7.321-8.387-12.071-11.359
						c-0.151-0.094-0.273,0.076-0.121,0.172c0.565,0.357,1.126,0.724,1.668,1.116c4.514,3.268,8.26,7.58,11.357,12.184
						c3.201,4.759,5.794,9.897,8.049,15.162c2.263,5.284,4.263,10.712,6.01,16.188c2.201,6.9,3.811,13.982,4.869,21.145
						c0.327,2.214,0.596,4.437,0.819,6.664C58.225,187.715,58.491,187.747,58.76,187.754z"/>
					<path style="fill:#8AB676;" d="M55.509,183.754c-1.418,0.148-2.834-0.037-4.207-0.411c-0.384-0.136-0.763-0.279-1.135-0.423
						c-2.762-1.069-5.293-2.882-7.098-5.239c-1.022-1.334-1.784-2.821-2.268-4.429c-0.057-0.191,0.052-0.326,0.246-0.36
						c2.818-0.494,5.881,0.4,8.436,1.546c2.758,1.238,5.148,3.029,7.089,5.337c0.695,0.99,1.26,2.068,1.645,3.207
						C57.37,183.391,56.46,183.655,55.509,183.754z"/>
					<path style="fill:#5B895D;" d="M53.941,175.458c-1.376,0.37-2.805,0.411-4.219,0.258c-0.401-0.073-0.798-0.155-1.188-0.238
						c-2.896-0.619-5.682-2.009-7.837-4.051c-1.22-1.156-2.207-2.504-2.94-4.016c-0.087-0.179,0-0.33,0.186-0.394
						c2.704-0.933,5.87-0.535,8.575,0.194c2.919,0.786,5.562,2.177,7.843,4.15c0.842,0.867,1.571,1.843,2.131,2.907
						C55.722,174.805,54.865,175.209,53.941,175.458z"/>
					<path style="fill:#8AB676;" d="M52.336,167.498c-1.16,0.397-2.38,0.506-3.597,0.441c-0.347-0.045-0.69-0.097-1.028-0.151
						c-2.508-0.402-4.959-1.492-6.903-3.192c-1.1-0.962-2.011-2.105-2.711-3.407c-0.083-0.154-0.016-0.292,0.14-0.358
						c2.268-0.962,4.997-0.769,7.346-0.261c2.536,0.549,4.865,1.647,6.913,3.279c0.763,0.726,1.434,1.553,1.965,2.466
						C53.828,166.831,53.114,167.231,52.336,167.498z"/>
					<path style="fill:#5B895D;" d="M50.504,161.753c-1.2,0.239-2.423,0.184-3.622-0.042c-0.338-0.091-0.672-0.188-1-0.287
						c-2.437-0.734-4.732-2.142-6.447-4.086c-0.971-1.101-1.731-2.356-2.264-3.74c-0.063-0.164,0.021-0.292,0.184-0.337
						c2.369-0.651,5.051-0.096,7.317,0.722c2.446,0.883,4.619,2.283,6.446,4.174c0.666,0.821,1.229,1.731,1.641,2.708
						C52.066,161.29,51.309,161.592,50.504,161.753z"/>
					<path style="fill:#8AB676;" d="M48.332,154.72c-1.2,0.239-2.423,0.184-3.622-0.042c-0.338-0.091-0.672-0.188-1-0.287
						c-2.437-0.734-4.732-2.142-6.447-4.086c-0.971-1.101-1.731-2.356-2.263-3.74c-0.063-0.164,0.021-0.292,0.184-0.337
						c2.369-0.651,5.051-0.096,7.317,0.722c2.446,0.883,4.619,2.283,6.446,4.174c0.666,0.821,1.229,1.731,1.641,2.708
						C49.894,154.257,49.137,154.559,48.332,154.72z"/>
					<path style="fill:#5B895D;" d="M45.488,147.675c-1.2,0.239-2.423,0.184-3.622-0.042c-0.338-0.091-0.672-0.188-1-0.287
						c-2.437-0.734-4.732-2.142-6.447-4.087c-0.971-1.1-1.731-2.356-2.264-3.74c-0.063-0.164,0.021-0.292,0.184-0.337
						c2.369-0.651,5.051-0.096,7.317,0.722c2.446,0.883,4.619,2.283,6.446,4.174c0.666,0.821,1.229,1.731,1.641,2.708
						C47.05,147.212,46.293,147.514,45.488,147.675z"/>
					<path style="fill:#8AB676;" d="M43.274,142.404c-1.2,0.239-2.423,0.184-3.622-0.042c-0.338-0.091-0.673-0.188-1-0.287
						c-2.437-0.734-4.732-2.142-6.447-4.087c-0.971-1.101-1.731-2.356-2.263-3.74c-0.063-0.164,0.021-0.292,0.184-0.337
						c2.369-0.652,5.051-0.096,7.317,0.722c2.446,0.883,4.619,2.283,6.446,4.174c0.666,0.821,1.229,1.731,1.641,2.708
						C44.837,141.941,44.079,142.243,43.274,142.404z"/>
					<path style="fill:#5B895D;" d="M40.527,136.687c-1.2,0.239-2.423,0.184-3.622-0.042c-0.338-0.091-0.672-0.188-1-0.287
						c-2.437-0.734-4.732-2.142-6.447-4.087c-0.971-1.1-1.731-2.356-2.264-3.74c-0.063-0.164,0.021-0.292,0.184-0.337
						c2.369-0.651,5.051-0.096,7.317,0.722c2.446,0.883,4.619,2.283,6.446,4.174c0.666,0.821,1.229,1.731,1.641,2.708
						C42.09,136.225,41.332,136.527,40.527,136.687z"/>
					<path style="fill:#8AB676;" d="M30.701,120.947c-1.011-0.362-1.906-0.953-2.706-1.662c-0.213-0.22-0.421-0.443-0.623-0.664
						c-1.501-1.643-2.59-3.724-3-5.944c-0.232-1.256-0.236-2.533-0.009-3.803c0.027-0.15,0.148-0.208,0.291-0.168
						c2.077,0.581,3.843,2.201,5.178,3.83c1.441,1.758,2.441,3.778,2.96,6.008c0.129,0.911,0.14,1.842,0.008,2.755
						C32.086,121.306,31.379,121.19,30.701,120.947z"/>
					<path style="fill:#5B895D;" d="M32.352,123.626c-0.931,0.186-1.88,0.143-2.811-0.033c-0.262-0.07-0.522-0.146-0.776-0.223
						c-1.891-0.569-3.673-1.662-5.004-3.171c-0.753-0.854-1.344-1.829-1.757-2.903c-0.049-0.127,0.016-0.226,0.143-0.261
						c1.839-0.506,3.92-0.075,5.679,0.56c1.898,0.685,3.585,1.772,5.003,3.239c0.517,0.637,0.953,1.344,1.273,2.102
						C33.565,123.267,32.977,123.501,32.352,123.626z"/>
					<path style="fill:#8AB676;" d="M36.667,130.451c-1.2,0.239-2.423,0.184-3.622-0.042c-0.338-0.091-0.672-0.188-1-0.287
						c-2.437-0.734-4.732-2.142-6.447-4.086c-0.971-1.101-1.731-2.356-2.263-3.74c-0.063-0.164,0.021-0.292,0.184-0.337
						c2.369-0.651,5.051-0.096,7.317,0.722c2.446,0.883,4.619,2.283,6.446,4.174c0.666,0.821,1.229,1.731,1.641,2.708
						C38.229,129.988,37.472,130.29,36.667,130.451z"/>
				</g>
			</g>
		</g>
		<g>
			<g>
				<path style="fill:#EFCAAC;" d="M193.731,186.616c-0.658,15.298-3.14,48.22-2.63,52.115l4.81,0.431
					c0,0,6.814-32.014,8.678-50.495L193.731,186.616z"/>
				<g>
					<path style="fill:#EFCAAC;" d="M195.798,240.62c-0.008-0.756,0.642-4.578,0.206-4.655c-0.308-0.054-0.994-0.307-1.305-0.317
						c-0.391-0.013-2.515-0.418-2.989-0.251c-0.691,0.244-0.592,3.058-1.244,3.39c-0.723,0.368-1.478,0.679-2.246,0.943
						c-1.275,0.438-2.944,0.947-4.282,1.09c-0.532,0.057-1.187,0.166-1.678,0.377c-0.491,0.212-0.456,0.308-0.65,0.807
						c-0.676,1.745,2.265,2.604,3.434,2.872c1.513,0.347,3.093,0.256,4.589-0.131c0.738-0.191,1.457-0.452,2.151-0.764
						c0.653-0.294,1.315-0.826,2.052-0.836c0.273-0.004,0.554,0.051,0.813-0.034c0.846-0.278,1.127-1.534,1.148-2.309
						C195.798,240.741,195.799,240.681,195.798,240.62z"/>
					<path style="fill:#844036;" d="M195.949,243.881c0.049-0.117,0.018-1.333-0.061-2.112c-0.686-0.026-1.374,0.018-2.06,0.147
						c-1.167,0.219-2.255,0.71-3.428,0.905c-1.183,0.197-2.39,0.211-3.586,0.182c-0.884-0.021-1.816-0.101-2.623-0.493
						c-0.692-0.336-1.183-0.893-1.475-1.576c-0.49,0.029-0.982,0.048-1.465,0.083c-0.032,0.003-0.064,0.006-0.095,0.009
						c-0.675,0.136-1.358,0.244-2.035,0.387c-0.933,0.197-1.911,0.531-2.563,1.27c-0.216,0.245-0.408,0.565-0.297,0.9
						c0.105,0.316,0.421,0.575,0.678,0.767c0.679,0.506,1.507,0.813,2.312,1.056c0.77,0.233,1.564,0.402,2.363,0.501
						c1.17,0.146,2.38,0.078,3.556,0.053c1.223-0.027,2.448-0.054,3.669,0.034c0.932,0.067,1.842,0.238,2.762,0.392
						c1.328,0.222,2.919,0.45,4.171-0.156C195.86,245.464,195.821,244.185,195.949,243.881z"/>
				</g>
			</g>
			<g>
				<g>
					<path style="fill:#4F5153;" d="M209.848,247.905c-0.029,0-0.057-0.001-0.086-0.004c-0.496-0.045-0.861-0.465-0.814-0.939
						l5.207-52.421c0.047-0.474,0.483-0.816,0.985-0.777c0.496,0.045,0.861,0.466,0.814,0.939l-5.207,52.422
						C210.701,247.571,210.308,247.905,209.848,247.905z"/>
				</g>
				<g>
					<path style="fill:#4F5153;" d="M250.041,247.905c0.029,0,0.057-0.001,0.086-0.004c0.496-0.045,0.861-0.465,0.814-0.939
						l-5.207-52.421c-0.047-0.474-0.483-0.816-0.985-0.777c-0.496,0.045-0.861,0.466-0.814,0.939l5.207,52.422
						C249.187,247.571,249.58,247.905,250.041,247.905z"/>
				</g>
			</g>
			<g>
				<path style="fill:#F6DFC9;" d="M194.984,189.281c1.413,15.246,3.398,48.202,4.429,51.993l4.824-0.223
					c0,0,2.43-32.64,1.783-51.204L194.984,189.281z"/>
				<g>
					<path style="fill:#F6DFC9;" d="M204.323,242.512c-0.11-0.747,0.018-4.623-0.424-4.64c-0.312-0.012-1.026-0.17-1.337-0.138
						c-0.388,0.04-2.548-0.075-2.995,0.155c-0.652,0.335-0.174,3.11-0.775,3.527c-0.667,0.462-1.373,0.873-2.098,1.237
						c-1.205,0.606-2.789,1.336-4.096,1.658c-0.519,0.128-1.154,0.324-1.612,0.6c-0.458,0.276-0.411,0.367-0.535,0.887
						c-0.434,1.82,2.596,2.275,3.79,2.383c1.546,0.14,3.099-0.164,4.529-0.749c0.705-0.288,1.382-0.644,2.028-1.048
						c0.607-0.379,1.191-0.996,1.921-1.106c0.27-0.04,0.556-0.025,0.801-0.144c0.801-0.39,0.91-1.672,0.825-2.443
						C204.34,242.633,204.332,242.572,204.323,242.512z"/>
					<path style="fill:#9C4E42;" d="M204.913,245.723c0.033-0.123-0.162-1.323-0.345-2.084c-0.683,0.067-1.359,0.203-2.021,0.424
						c-1.127,0.375-2.138,1.008-3.274,1.36c-1.145,0.355-2.34,0.532-3.529,0.665c-0.879,0.098-1.813,0.145-2.666-0.134
						c-0.731-0.239-1.293-0.725-1.674-1.363c-0.482,0.095-0.966,0.18-1.441,0.281c-0.031,0.007-0.062,0.015-0.093,0.021
						c-0.651,0.226-1.312,0.425-1.964,0.658c-0.898,0.321-1.822,0.784-2.368,1.605c-0.181,0.272-0.328,0.615-0.172,0.932
						c0.147,0.299,0.495,0.513,0.775,0.668c0.742,0.41,1.603,0.602,2.433,0.735c0.794,0.127,1.604,0.187,2.409,0.178
						c1.179-0.014,2.369-0.244,3.531-0.428c1.208-0.191,2.418-0.384,3.64-0.462c0.933-0.059,1.858-0.013,2.79,0.016
						c1.346,0.041,2.953,0.052,4.112-0.718C205.038,247.303,204.827,246.042,204.913,245.723z"/>
				</g>
			</g>
			<polygon style="fill:#EFCAAC;" points="218.765,128.166 222.601,138.695 228.353,136.628 224.451,125.092 			"/>
			<g>
				<path style="fill:#F6DFC9;" d="M223.903,103.659c-0.223-0.922-5.35-1.329-6.943-1.521c-2.855-0.343-6.281,1.167-7.872,3.57
					c-1.953,2.948-1.969,6.903-1.332,10.132c0.738,3.747-1.12,5.515-3.155,7.056c-0.816,0.618,3.428,2.18,3.463,2.385
					c0.383,2.231,2.534,7.622,4.086,7.961c2.77,0.606,8.326-2.923,11.045-3.727c3.488-1.031,4.087-0.089,4.127-4.015
					C227.334,124.174,224.274,105.192,223.903,103.659z"/>
				<g>
					<g>
						<g>
							<g>
								<path style="fill:#D18C59;" d="M218.938,122.456c0,0,0.165,0.126,0.408,0.294c0.125,0.082,0.264,0.179,0.421,0.267
									c0.076,0.05,0.164,0.084,0.243,0.132c0.086,0.039,0.17,0.083,0.258,0.116c0.088,0.032,0.174,0.073,0.264,0.094
									c0.087,0.024,0.174,0.055,0.262,0.066c0.086,0.021,0.169,0.037,0.251,0.039c0.081,0.011,0.159,0.022,0.231,0.016
									c0.074,0.001,0.141,0.002,0.201,0.002c0.06-0.007,0.113-0.01,0.156-0.014c0.09-0.005,0.142-0.007,0.142-0.007
									s-0.044,0.027-0.125,0.068c-0.08,0.045-0.199,0.1-0.354,0.133c-0.076,0.025-0.16,0.036-0.253,0.042
									c-0.09,0.01-0.187,0.014-0.288,0.001c-0.1-0.005-0.203-0.02-0.304-0.047c-0.105-0.021-0.202-0.062-0.305-0.097
									c-0.195-0.084-0.38-0.188-0.534-0.31c-0.158-0.117-0.286-0.248-0.387-0.364
									C219.021,122.649,218.938,122.456,218.938,122.456z"/>
							</g>
							<g>
								<path style="fill:#643828;" d="M241.527,102.015c-6.392-1.128-8.653,1.426-8.653,1.426c3.296,6.226,3.318,11.93,1.709,16.64
									c2.464,0.893,7.143,1.826,10.136-0.602C249.158,115.882,249.382,103.401,241.527,102.015z"/>
								<path style="fill:#8E5640;" d="M236.962,103.531c-1.208-1.308-2.561-2.497-4.1-3.401c-1.457-0.856-3.063-1.426-4.723-1.731
									c-1.93-0.354-3.929-0.405-5.884-0.286c-2.058,0.125-4.11,0.5-6.054,1.195c-1.802,0.644-3.504,1.56-4.963,2.804
									c-1.32,1.126-2.441,2.484-3.277,4.005c-1.467,2.671-1.93,5.79-1.148,8.706c0.005,0,0.011,0,0.016,0
									c0.716,0.007,1.431-0.003,2.147,0.009c0.948,0.017,1.895,0.048,2.843,0.04c0.848-0.006,1.695,0.016,2.543,0.009
									c0.809-0.008,1.626-0.072,2.392-0.348c0.086-0.031,0.204,0.049,0.216,0.137c0.073,0.562,0.18,1.12,0.312,1.671
									c0.263,1.095,0.622,2.172,1.108,3.189c0.291,0.608,0.632,1.216,1.057,1.752c0.001-0.004,0.005-0.008,0.005-0.012
									c0.031-0.644,0.006-1.294,0.078-1.935c0.071-0.627,0.305-1.208,0.635-1.744c0.048-0.078,0.101-0.154,0.153-0.23
									c0.446-0.493,0.969-0.852,1.513-0.849c1.384,0.007,2.882,1.722,1.813,4.703c-1.068,2.981-3.186,2.342-3.186,2.342
									c1.966,4.528,1.997,6.214,1.997,6.214s6.76,1.543,11.759-2.041c4.958-3.552,9.454-13.221,3.914-22.78
									C237.767,104.457,237.379,103.982,236.962,103.531z"/>
							</g>
						</g>
					</g>
				</g>
				<g>
					<g>
						<path style="fill:#492717;" d="M211.303,118.738c0.141,0.91-0.035,1.692-0.393,1.748c-0.358,0.055-0.762-0.637-0.903-1.547
							c-0.141-0.91,0.035-1.692,0.393-1.747C210.758,117.136,211.162,117.828,211.303,118.738z"/>
						<path style="fill:#FFFFFF;" d="M210.948,118.132c0.028,0.178-0.026,0.334-0.12,0.349c-0.094,0.015-0.192-0.118-0.219-0.296
							c-0.028-0.178,0.026-0.334,0.12-0.349C210.822,117.821,210.921,117.954,210.948,118.132z"/>
					</g>
					<path style="fill:#FFFFFF;" d="M210.361,128.931c0.416,0.05,0.946-0.014,1.499-0.232c0.506-0.2,0.964-0.492,1.25-0.818
						c0.381-0.434,0.459-0.863,0.347-1.197c-0.636,0.321-1.273,0.642-1.917,0.951c-0.545,0.261-1.089,0.524-1.633,0.785
						c-0.134,0.064-0.269,0.126-0.404,0.189C209.717,128.766,209.997,128.886,210.361,128.931z"/>
					<path style="fill:#8E5640;" d="M208.695,116.9c0,0,0.917-1.72,2.829-0.3c0,0-0.275-1.485-1.635-1.277
						C208.371,115.555,208.695,116.9,208.695,116.9z"/>
				</g>
				<path style="fill:#FFCAA6;" d="M220.703,121.609c0.042,0.031,0.029,0.021,0.092,0.037c0.048,0.012,0.168,0.008,0.255-0.009
					c0.495-0.095,0.966-0.414,1.328-0.752c0.452-0.422,0.676-1,0.702-1.616c0.015-0.341-0.045-0.706-0.258-0.983
					c-0.216-0.282-0.6-0.487-0.961-0.456c-0.384,0.033-0.645,0.305-0.798,0.644c0.068,0.318,0.176,0.627,0.22,0.949
					c0.106,0.778-0.277,1.459-0.625,2.137c0,0.001,0,0.001,0.001,0.001C220.673,121.585,220.676,121.589,220.703,121.609z"/>
			</g>
			<path style="fill:#B7B780;" d="M243.931,178.133l-17.865-2.328c0,0-20.357,3.548-30.798,8.636
				c-1.618,1.373-2.933,3.076-3.548,5.129c-0.91,3.034-1.108,6.206-1.195,9.355c-0.043,1.572-0.064,3.147-0.121,4.72
				c0.798,0.039,1.612,0.23,2.311,0.391c1.834,0.423,3.693,0.737,5.56,0.977c2.03,0.261,4.11,0.49,6.155,0.292
				c1.282-0.124,2.539-0.395,3.787-0.707l-0.128-11.609c0,0,23.854-1.667,30.603-3.106
				C245.442,188.443,243.931,178.133,243.931,178.133z"/>
			<g>
				<path style="fill:#4583A7;" d="M247.894,194.221c0,0-2.186-5.401-6.209-5.917c-4.024-0.516-11.001,1.149-23.559,0.695
					c-12.559-0.454-15.117-1.06-16.861,1.589c0,0-0.814,1.665-0.116,3.482c0.698,1.816,2.755,3.372,6.087,3.275
					C210.568,197.249,245.685,199.595,247.894,194.221z"/>
				<path style="fill:#AFB1B4;" d="M209.603,190.27c5.715-0.653,35.338,4.368,39.13-3.062c6.691-13.111,12.678-39.821,12.678-39.821
					s0.786-2.655,2.411-2.438c1.583,0.211,2.545,1.249,1.893,3.656l0.004,0.001c0,0-7.152,25.816-8.669,31.126
					c-0.181,0.633-3.468,16.754-13.129,18.055c-9.661,1.301-36.524,0.34-36.524,0.34s-2.522,0.064-2.852-2.1
					C204.215,193.863,203.888,190.923,209.603,190.27z"/>
				<g>
					<g>
						<path style="fill:#AFB1B4;" d="M254.936,183.147c0,0-1.96,7.226-5.082,10.593c0,0-2.51,2.694-5.817,3.49
							c0,0-3.735,0.613-14.757,0.551c-11.022-0.061-23.024,0.551-23.514-1.041c0,0,1.041,0.245,3.307,0.551
							c2.266,0.306,16.533,0.061,22.534-0.061c6.001-0.122,10.27,0.068,13.073-0.765
							C248.384,195.363,251.813,191.658,254.936,183.147z"/>
					</g>
				</g>
			</g>
			<path style="fill:#577B78;" d="M222.896,178.429c0.71,0.336,1.449,0.616,2.202,0.84c1.837,0.547,3.734,0.771,5.643,0.862
				c1.8,0.087,3.608,0.049,5.401-0.132c2.615-0.265,5.326-0.838,7.724-2.002c-0.266-4.127-1.357-19.374-3.331-26.119
				c-2.294-7.84-7.908-17.586-13.038-20.78l-6.556,3.825l0.219,1.109c0,0-2.941,6.045-3,14.85
				c-0.059,8.805,0.472,26.308,0.472,26.308S221.468,177.548,222.896,178.429z"/>
			<g>
				<g>
					<g>
						<g>
							<rect x="97.474" y="139.848" style="fill:#2D4C71;" width="4.552" height="28.419"/>
							<rect x="97.844" y="139.848" style="fill:#E3E2D7;" width="3.866" height="1.538"/>
							<rect x="97.474" y="141.56" style="fill:#5282BD;" width="4.552" height="28.419"/>
							<rect x="101.51" y="141.56" style="fill:#5282BD;" width="0.516" height="28.419"/>
						</g>
						<g>
							<rect x="102.026" y="139.848" style="fill:#864E2C;" width="4.552" height="28.419"/>
							<rect x="102.396" y="139.848" style="fill:#E3E2D7;" width="3.866" height="1.538"/>
							<rect x="102.026" y="141.56" style="fill:#B46651;" width="4.552" height="28.419"/>
							<rect x="106.061" y="141.56" style="fill:#9C4E42;" width="0.516" height="28.419"/>
						</g>
						<g>
							<rect x="106.577" y="142.751" style="fill:#18534E;" width="4.113" height="25.68"/>
							<rect x="106.912" y="142.751" style="fill:#E3E2D7;" width="3.494" height="1.39"/>
							<rect x="106.577" y="144.299" style="fill:#49A199;" width="4.113" height="25.68"/>
							<rect x="110.224" y="144.299" style="opacity:0.51;fill:#456EA0;" width="0.466" height="25.68"/>
						</g>
						<g>
							<rect x="110.69" y="141.948" style="fill:#2D4C71;" width="4.234" height="26.437"/>
							<rect x="111.035" y="141.948" style="fill:#E3E2D7;" width="3.597" height="1.431"/>
							<rect x="110.69" y="143.542" style="fill:#5282BD;" width="4.234" height="26.437"/>
							<rect x="114.445" y="143.542" style="fill:#5282BD;" width="0.48" height="26.437"/>
						</g>
						<g>
							<rect x="114.925" y="141.948" style="fill:#864E2C;" width="4.234" height="26.437"/>
							<rect x="115.269" y="141.948" style="fill:#E3E2D7;" width="3.597" height="1.431"/>
							<rect x="114.925" y="143.542" style="fill:#B46651;" width="4.234" height="26.437"/>
							<rect x="118.679" y="143.542" style="fill:#9C4E42;" width="0.48" height="26.437"/>
						</g>
						<g>
							<rect x="119.159" y="144.649" style="fill:#18534E;" width="3.826" height="23.89"/>
							<rect x="119.47" y="144.649" style="fill:#E3E2D7;" width="3.25" height="1.293"/>
							<rect x="119.159" y="146.089" style="fill:#49A199;" width="3.826" height="23.89"/>
							<rect x="122.552" y="146.089" style="opacity:0.51;fill:#456EA0;" width="0.434" height="23.89"/>
						</g>
					</g>
					<g>
						<g>
							<path style="fill:#E2DFCA;" d="M126.482,169.136c0.013,0.516-2.001,0.985-4.498,1.049c-2.497,0.063-4.532-0.304-4.545-0.82
								c-0.013-0.516,2.001-0.985,4.498-1.049C124.434,168.253,126.469,168.62,126.482,169.136z"/>
							<path style="fill:#EDEAD3;" d="M127.866,162.269c0,0,0.539-1.41,2.822-1.057c2.283,0.352,2.133,3.961-0.047,5.502
								c-1.84,1.301-5.383,1.898-5.383,1.898v-0.921c0,0,2.649-0.074,4.518-1.466c1.992-1.485,1.668-3.609,0.508-3.91
								c-1.607-0.416-2.581,1.729-2.581,1.729L127.866,162.269z"/>
							<path style="fill:#E2DFCA;" d="M127.199,167.391c-1.083,0.277-1.94,0.301-1.94,0.301v0.921c0,0,0.628-0.106,1.491-0.326
								C126.905,167.991,127.056,167.693,127.199,167.391z"/>
							<path style="fill:#E2DFCA;" d="M128.581,162.834c0.112-0.488,0.215-0.979,0.284-1.473c-0.774,0.322-0.999,0.909-0.999,0.909
								l-0.163,1.776C127.703,164.045,128.017,163.355,128.581,162.834z"/>
							<path style="fill:#EDEAD3;" d="M128.518,160.599l-6.682-0.087h-0.197l-6.682,0.087c0,0,0.29,4.629,2.695,8.714
								c0.002,0.004,0.004,0.007,0.006,0.011c0,0,0,0,0,0l0,0c0.225,0.371,1.965,0.661,4.079,0.661c2.135,0,3.888-0.295,4.086-0.672
								C128.227,165.228,128.518,160.599,128.518,160.599z"/>
							<path style="fill:#BDBDAC;" d="M128.518,160.599c0,0.339-3.036,0.613-6.78,0.613c-3.745,0-6.78-0.275-6.78-0.613
								s3.036-0.613,6.78-0.613C125.482,159.986,128.518,160.26,128.518,160.599z"/>
						</g>
					</g>
				</g>
				<g>
					<g>
						<rect x="159.859" y="167.194" style="fill:#646669;" width="30.49" height="1.733"/>
						<rect x="161.817" y="168.199" style="fill:#313436;" width="2.353" height="0.364"/>
						<rect x="165.214" y="168.199" style="fill:#313436;" width="2.353" height="0.364"/>
						<g>
							<polygon style="fill:#646669;" points="151.322,136.052 149.963,136.052 160.021,168.927 161.379,168.927 							"/>
						</g>
					</g>
					<g>
						<g>
							<g>
								<g>
									<g>
										<polygon style="fill:#A4775A;" points="187.183,253.389 190.349,253.389 193.515,174.316 187.183,174.316 										"/>
									</g>
									<polygon style="fill:#A4775A;" points="189.652,253.389 190.349,253.389 193.515,174.316 192.605,174.316 									"/>
								</g>
							</g>
							<g>
								<g>
									<g>
										<polygon style="fill:#A4775A;" points="107.424,253.389 104.258,253.389 101.092,174.316 107.424,174.316 										"/>
									</g>
									<polygon style="fill:#A4775A;" points="104.955,253.389 104.258,253.389 101.092,174.316 102.002,174.316 									"/>
								</g>
							</g>
							<rect x="98.606" y="169.114" style="fill:#72533D;" width="96.574" height="8.015"/>
						</g>
						<g>
							<rect x="95.68" y="168.76" style="fill:#A4775A;" width="105.242" height="3.507"/>
						</g>
					</g>
				</g>
			</g>
			<g>
				<path style="fill:#F6DFC9;" d="M226.4,134.291c0,0-2.35-1.657-5.97,3.848c-3.621,5.506-9.895,19.253-9.895,19.253l-21.295,5.279
					l-0.805,4.751c0,0,21.638-0.78,25.753-3.358s13.874-20.978,13.874-20.978S231.594,135.488,226.4,134.291z"/>
				<g>
					<path style="fill:#F6DFC9;" d="M190.381,162.654c-0.365-0.339-0.825-0.594-1.26-0.832c-0.465-0.254-0.947-0.478-1.436-0.68
						c-0.993-0.41-2.02-0.733-3.048-1.042c-0.532-0.16-1.064-0.317-1.595-0.482c-0.517-0.161-1.035-0.293-1.58-0.225
						c-1.154,0.146-2.242,0.661-3.322,1.064c-1.137,0.425-2.252,0.907-3.339,1.447c-0.476,0.237-0.992,0.427-1.446,0.704
						c-0.383,0.233-0.544,0.588-0.664,0.997c-0.143,0.792-0.251,1.607-0.711,2.271c-0.184,0.266-0.639,0.753-0.786,1.19
						c-0.053,0.249,0.03,0.442,0.344,0.52c0.327,0.081,0.692-0.015,1.002-0.121c0.183-0.062,0.378-0.139,0.556-0.24
						c0.205,0.282,0.791,0.248,1.076,0.227c0.255-0.019,0.51-0.054,0.76-0.109c0.443-0.097,0.904-0.228,1.336-0.4
						c-0.03,0.073-0.051,0.15-0.046,0.234c0.024,0.445,0.682,0.357,0.975,0.326c0.774-0.08,1.531-0.266,2.281-0.467
						c0.737-0.197,1.472-0.416,2.227-0.536c0.677-0.108,1.357-0.104,2.039-0.053c0.803,0.06,1.608,0.104,2.408,0.192
						c0.82,0.09,1.596,0.289,2.385,0.519c0.008,0.002,0.019-0.001,0.029-0.004c0.547,0.183,1.217,0.021,1.703-0.254
						c0.729-0.413,1.127-1.174,1.117-2.007C191.375,164.054,190.996,163.225,190.381,162.654z"/>
					<path style="opacity:0.58;fill:#D18C59;" d="M183.24,163.941c-0.326,0.078-0.663,0.096-0.99,0.169
						c-0.305,0.068-0.603,0.164-0.894,0.277c-0.645,0.25-1.267,0.567-1.894,0.859c-0.637,0.297-1.271,0.599-1.898,0.916
						c-0.274,0.138-0.551,0.264-0.832,0.388c-0.212,0.093-0.443,0.201-0.582,0.394c-0.043,0.059,0.041,0.097,0.086,0.059
						c0.212-0.179,0.456-0.279,0.708-0.388c0.286-0.124,0.564-0.266,0.842-0.407c0.604-0.307,1.221-0.585,1.83-0.879
						c0.585-0.283,1.165-0.59,1.766-0.838c0.317-0.131,0.645-0.243,0.981-0.315c0.297-0.064,0.594-0.091,0.881-0.193
						C183.266,163.974,183.271,163.934,183.24,163.941z"/>
					<path style="opacity:0.58;fill:#D18C59;" d="M180.702,162.4c-1.422,0.361-2.681,1.262-3.918,2.015
						c-0.705,0.429-1.399,0.876-2.09,1.328c-0.34,0.222-0.699,0.431-1.022,0.676c-0.247,0.187-0.433,0.458-0.613,0.706
						c-0.045,0.063,0.05,0.079,0.089,0.041c0.255-0.252,0.42-0.542,0.724-0.75c0.316-0.216,0.635-0.428,0.954-0.638
						c0.665-0.438,1.335-0.868,2.014-1.283c1.25-0.764,2.48-1.553,3.867-2.049C180.731,162.437,180.737,162.391,180.702,162.4z"/>
					<path style="opacity:0.58;fill:#D18C59;" d="M178.019,161.668c-1.305,0.7-2.586,1.461-3.817,2.285
						c-0.582,0.39-1.197,0.785-1.689,1.288c-0.219,0.225-0.417,0.47-0.609,0.718c-0.122,0.158-0.234,0.326-0.364,0.477
						c-0.098,0.115-0.207,0.216-0.285,0.346c-0.049,0.081,0.074,0.094,0.111,0.032c0.087-0.143,0.215-0.255,0.32-0.385
						c0.098-0.122,0.189-0.251,0.284-0.375c0.207-0.27,0.423-0.536,0.663-0.778c0.507-0.509,1.145-0.906,1.738-1.306
						c1.193-0.805,2.447-1.508,3.664-2.274C178.052,161.686,178.042,161.656,178.019,161.668z"/>
				</g>
			</g>
		</g>
	</g>
	<g>
		<rect x="54.719" y="29.314" style="fill:#816549;" width="35.229" height="45.022"/>
		<rect x="57.717" y="31.509" style="fill:#CFD2BC;" width="29.233" height="40.632"/>
		<g>
			<path style="fill:#D6DBDA;" d="M84.209,60.975c-0.116-0.469-0.245-0.933-0.323-1.41c-0.07-0.434-0.107-0.872-0.105-1.312
				c0.002-0.433,0.042-0.866,0.106-1.295c0.068-0.454,0.178-0.9,0.257-1.353c0.152-0.873,0.186-1.764,0.131-2.647
				c-0.005-0.079-0.011-0.159-0.018-0.238c-0.044-0.324-0.096-0.646-0.163-0.966c-0.228-1.092-0.596-2.147-1.147-3.129
				c-0.556-0.991-1.523-2.314-2.738-2.63c0.215-0.472,0.413-0.952,0.581-1.442c0.574-1.669,0.82-3.445,0.517-5.188
				c-0.259-1.491-1.246-3.024-2.94-3.219c-0.846-0.097-1.687,0.192-2.419,0.577c-0.809,0.426-1.533,0.978-2.157,1.629
				c-0.164,0.171-0.319,0.349-0.467,0.53c-0.057,0.07-0.11,0.144-0.165,0.216c-0.088,0.113-0.177,0.225-0.261,0.341
				c-0.063,0.087-0.122,0.175-0.184,0.263c-0.073,0.104-0.147,0.208-0.218,0.313c-0.091,0.135-0.182,0.272-0.273,0.408
				c-0.035,0.053-0.071,0.106-0.106,0.159c0,0,0,0,0,0c-0.005,0.008-0.011,0.016-0.016,0.023c-0.052,0.078-0.104,0.155-0.156,0.232
				c0.05-0.599,0.103-1.211,0.049-1.813c0.042-0.467,0.027-0.939-0.052-1.413c-0.267-1.586-1.293-3.176-2.882-3.823
				c-2.565-1.045-4.643,1.659-5.685,3.514c-0.765,1.361-1.274,2.824-1.591,4.338c-0.093,0.443-0.166,0.89-0.226,1.339
				c-0.009,0.11-0.018,0.22-0.024,0.33c-0.076,1.224-0.028,2.459,0.182,3.669c0.109,0.627,0.262,1.245,0.356,1.875
				c0.089,0.595,0.144,1.195,0.147,1.795c0.003,0.609-0.048,1.217-0.145,1.818c-0.108,0.662-0.286,1.304-0.447,1.955
				c-0.306,1.235-0.449,2.497-0.376,3.765c0.038,0.647,0.128,1.29,0.247,1.927c0.134,0.712,0.308,1.412,0.401,2.131
				c0.226,1.749,0.339,3.507,0.564,5.258c0.078,0.607,0.448,1.129,1.14,1.15c0,0.001,0,0.001,0,0.002
				c0.016,0,0.031,0.002,0.047,0.002l0,0l0,0h0c0.064,0,0.129-0.005,0.192-0.017c0.063-0.012,0.125-0.03,0.183-0.056
				c1.103-0.499,2.12-1.411,3.001-2.269c0.126-0.122,0.249-0.244,0.369-0.363c0.705-0.699,1.306-1.486,1.969-2.221
				c1.201-1.333,2.521-2.577,3.399-4.143c0.148-0.264,0.279-0.536,0.404-0.811c0.048,0.068,0.094,0.136,0.142,0.203
				c0.407,0.573,0.83,1.133,1.157,1.753c0.334,0.633,0.595,1.299,0.851,1.964c0.26,0.676,0.505,1.367,0.861,2.003
				c0.633,1.13,1.585,2.027,2.452,2.989c0.478,0.53,0.911,1.098,1.42,1.602c0.693,0.687,1.521,1.487,2.43,1.898
				c0.084,0.038,0.178,0.052,0.27,0.052c0.522,0.002,0.799-0.384,0.856-0.833c0.162-1.262,0.244-2.531,0.407-3.793
				c0.067-0.518,0.193-1.024,0.289-1.537c0.086-0.46,0.151-0.924,0.179-1.39C84.533,62.776,84.43,61.866,84.209,60.975z"/>
		</g>
		<g>
			<path style="fill:#8AB676;" d="M80.436,38.216c-0.248-1.49-1.192-3.024-2.813-3.219c-0.81-0.097-1.614,0.192-2.314,0.577
				c-0.774,0.426-1.466,0.978-2.063,1.629c-0.631,0.689-1.116,1.469-1.616,2.254c-0.049,0.078-0.099,0.155-0.149,0.232
				c0.048-0.599,0.099-1.211,0.047-1.813c0.04-0.468,0.026-0.939-0.05-1.413c-0.255-1.586-1.237-3.176-2.757-3.823
				c-2.454-1.045-4.442,1.659-5.438,3.514c-0.731,1.361-1.219,2.824-1.522,4.338c-0.089,0.443-0.159,0.89-0.216,1.339
				c-0.008,0.11-0.017,0.22-0.024,0.33c-0.072,1.224-0.027,2.459,0.174,3.669c0.104,0.627,0.25,1.245,0.34,1.875
				c0.085,0.595,0.137,1.194,0.141,1.795c0.003,0.609-0.046,1.217-0.139,1.818c-0.103,0.662-0.273,1.304-0.428,1.955
				c-0.293,1.235-0.43,2.497-0.359,3.765c0.036,0.647,0.122,1.29,0.236,1.927c0.128,0.711,0.294,1.412,0.383,2.131
				c0.216,1.749,0.325,3.508,0.539,5.258c0.076,0.621,0.443,1.157,1.135,1.154c0.123,0,0.247-0.02,0.359-0.073
				c1.206-0.57,2.305-1.68,3.223-2.632c0.675-0.699,1.25-1.486,1.884-2.221c1.149-1.333,2.412-2.577,3.251-4.143
				c0.473-0.882,0.797-1.841,1.142-2.777c0.34-0.922,0.686-1.845,1.129-2.723c0.434-0.859,0.995-1.636,1.535-2.43
				c0.51-0.75,1.015-1.505,1.495-2.275c0.949-1.524,1.818-3.119,2.38-4.83C80.491,41.735,80.726,39.959,80.436,38.216z"/>
			<path style="fill:#5B895D;" d="M80.436,38.216c-0.248-1.49-1.192-3.024-2.813-3.219c-0.81-0.097-1.614,0.192-2.314,0.577
				c-0.774,0.426-1.466,0.978-2.063,1.629c-0.625,0.682-1.107,1.453-1.601,2.23c-0.084,0.249-0.177,0.496-0.277,0.74
				c-0.42,1.023-0.96,1.997-1.326,3.042c-0.782,2.232-1.035,4.597-1.402,6.921c-0.181,1.145-0.394,2.285-0.699,3.404
				c-0.313,1.149-0.736,2.264-1.189,3.364c-0.457,1.109-0.945,2.204-1.385,3.319c-0.438,1.11-0.805,2.238-1.101,3.394
				c-0.328,1.283-0.583,2.581-0.769,3.89c0.015,0,0.03,0.002,0.045,0.002c0.123,0,0.247-0.02,0.359-0.073
				c1.206-0.57,2.305-1.68,3.223-2.632c0.675-0.699,1.25-1.486,1.884-2.221c1.149-1.333,2.412-2.577,3.251-4.143
				c0.473-0.882,0.797-1.841,1.142-2.777c0.34-0.922,0.686-1.845,1.129-2.723c0.434-0.859,0.995-1.636,1.535-2.43
				c0.51-0.75,1.015-1.505,1.495-2.275c0.949-1.524,1.818-3.119,2.38-4.83C80.491,41.735,80.726,39.959,80.436,38.216z"/>
		</g>
		<g>
			<g>
				<path style="fill:#8AB676;" d="M69.631,48.963c0.179-1.075,0.859-2.182,2.029-2.322c0.584-0.07,1.164,0.138,1.669,0.416
					c0.558,0.307,1.058,0.705,1.488,1.175c0.455,0.497,0.805,1.06,1.165,1.626c0.036,0.056,0.072,0.112,0.108,0.168
					c-0.035-0.432-0.071-0.874-0.034-1.308c-0.029-0.337-0.019-0.677,0.036-1.019c0.184-1.144,0.893-2.291,1.989-2.758
					c1.77-0.754,3.204,1.197,3.923,2.535c0.528,0.982,0.879,2.037,1.098,3.129c0.064,0.32,0.115,0.642,0.156,0.966
					c0.006,0.079,0.012,0.159,0.017,0.238c0.052,0.883,0.019,1.774-0.126,2.647c-0.075,0.452-0.18,0.898-0.246,1.353
					c-0.062,0.429-0.099,0.862-0.101,1.295c-0.002,0.439,0.033,0.878,0.1,1.312c0.074,0.477,0.197,0.941,0.309,1.41
					c0.211,0.891,0.31,1.801,0.259,2.716c-0.026,0.466-0.088,0.93-0.171,1.39c-0.092,0.513-0.212,1.019-0.277,1.537
					c-0.156,1.261-0.234,2.53-0.389,3.793c-0.055,0.448-0.319,0.835-0.819,0.833c-0.089,0-0.178-0.015-0.259-0.052
					c-0.87-0.411-1.662-1.212-2.325-1.898c-0.487-0.504-0.901-1.072-1.359-1.602c-0.829-0.962-1.74-1.859-2.345-2.989
					c-0.341-0.636-0.575-1.328-0.824-2.003c-0.245-0.665-0.494-1.331-0.814-1.964c-0.313-0.62-0.718-1.18-1.107-1.753
					c-0.368-0.541-0.732-1.085-1.078-1.641c-0.685-1.099-1.311-2.25-1.717-3.484C69.592,51.502,69.422,50.221,69.631,48.963z"/>
			</g>
		</g>
	</g>
	<g>
		<g>
			
				<ellipse transform="matrix(0.9872 -0.1592 0.1592 0.9872 -4.5559 38.3484)" style="fill:#5B895D;" cx="237.057" cy="47.608" rx="19.647" ry="19.647"/>
		</g>
		<g>
			
				<ellipse transform="matrix(0.3454 -0.9385 0.9385 0.3454 110.5049 253.6353)" style="fill:#F9F7ED;" cx="237.057" cy="47.608" rx="17.371" ry="17.371"/>
		</g>
		<g>
			<g>
				<path style="fill:#5B895D;" d="M237.114,47.395c-0.054,0.169-0.073,0.339,0.106,0.443c0.117,0.065,0.293,0.04,0.421,0.045
					c0.145,0.007,0.291,0.031,0.436,0.047c0.128,0.013,0.255,0.025,0.383,0.036c0.009-0.005,0.018-0.009,0.03-0.009
					c0.714,0.009,1.429,0.038,2.143,0.086c0.35,0.023,0.699,0.044,1.047,0.084c0.16,0.019,0.322,0.024,0.481,0.03
					c0.049,0.002,0.118,0.003,0.186,0.007c0-0.002,0-0.005,0.001-0.007c0.046,0.003,0.092,0.005,0.138,0.008
					c-0.008,0.073-0.014,0.147-0.015,0.221c-0.01,0.094-0.025,0.188-0.042,0.282c0,0,0,0.001,0,0.001
					c0.268-0.237,0.62-0.39,0.924-0.573c0.173-0.105,0.344-0.212,0.511-0.322c0.102-0.069,0.254-0.196,0.374-0.266
					c-0.174-0.127-0.327-0.307-0.487-0.449c-0.317-0.282-0.694-0.486-1.003-0.774c-0.003,0.024-0.007,0.049-0.011,0.071
					c-0.016,0.091-0.028,0.19-0.048,0.287c-0.024,0.072-0.045,0.147-0.071,0.218c-0.139-0.001-0.282,0.022-0.421,0.045
					c-0.142,0.012-0.283,0.027-0.426,0.034c-0.496,0.025-0.996,0.021-1.492,0.043c-0.482,0.022-0.964,0.046-1.447,0.062
					c-0.438,0.013-0.891,0.023-1.324-0.069c-0.051,0.005-0.105,0.01-0.157,0.018C237.189,47.017,237.154,47.272,237.114,47.395z"/>
				<path style="fill:#5B895D;" d="M238.55,37.78c-0.087,0.013-0.181,0.021-0.273,0.038c-0.069,0.019-0.139,0.037-0.207,0.06
					c-0.004,0.132-0.029,0.265-0.054,0.397c-0.016,0.135-0.034,0.268-0.045,0.403c-0.034,0.438-0.118,7.301-0.151,8.394
					c-0.012,0.039-0.031,0.111-0.026,0.107c0,0-0.165-0.053-0.187-0.051c-0.135,0.019-0.268,0.003-0.403,0.01
					c-0.087,0.006-0.124-0.004-0.145-0.044c0.003-0.696-0.137-5.477-0.161-6.089c-0.012-0.332-0.023-1.945-0.053-2.275
					c-0.012-0.152-0.012-0.304-0.015-0.456c-0.001-0.046-0.001-0.111-0.002-0.175c0.003,0,0.005,0,0.006,0
					c0-0.044,0-0.087-0.001-0.131c-0.07,0.005-0.14,0.009-0.21,0.009c-0.089,0.007-0.179,0.018-0.268,0.033l-0.002,0
					c0.23-0.249,0.385-0.576,0.567-0.858c0.102-0.16,0.207-0.319,0.317-0.474c0.068-0.096,0.192-0.234,0.261-0.346
					c0.116,0.166,0.283,0.317,0.412,0.472c0.258,0.306,0.442,0.669,0.705,0.968C238.595,37.773,238.573,37.778,238.55,37.78z"/>
			</g>
			<g>
				<path style="fill:#2F4F2F;" d="M238.716,47.69c0,0.748-0.606,1.354-1.353,1.354c-0.747,0-1.353-0.606-1.353-1.354
					c0-0.748,0.606-1.354,1.353-1.354C238.111,46.336,238.716,46.942,238.716,47.69z"/>
			</g>
		</g>
	</g>
</g>
</svg>
